<svg width="111" height="40" viewBox="0 0 111 40" fill="none" xmlns="http://www.w3.org/2000/svg">
    <path d="M48.1661 13.3401C44.4218 -0.198059 27.5639 -4.57069 17.8832 5.55968C17.7443 5.70455 17.6053 5.85262 17.4664 6.00386C3.60778 21.0203 10.155 58.036 39.082 67.4165C68.009 76.797 98.0979 59.6671 99.7868 44.3521C101.476 29.0372 88.1321 24.2251 67.4197 28.5094C55.7219 30.9286 50.4971 21.7678 48.1661 13.3401Z" fill="#BBE2F2"/>
    <path d="M72.2301 15.6566C68.3587 16.2847 67.2879 19.702 70.2752 22.1284C71.2622 22.9308 72.6709 23.5947 74.6832 23.929C82.3491 25.1947 86.4001 21.8179 83.3313 17.4405C81.4388 14.7372 76.0654 15.0333 72.2301 15.6566Z" fill="#BBE2F2"/>
    <path d="M10.5191 43.01C8.12351 39.9246 4.58998 40.6219 3.88328 44.3975C3.64372 45.6465 3.73954 47.1987 4.40792 49.1164C6.95684 56.4216 11.875 58.3608 14.2635 53.5798C15.7368 50.6328 12.9027 46.0692 10.5191 43.01Z" fill="#BBE2F2"/>
    <path d="M92.7317 26.4986C94.5907 26.8855 95.9394 25.3714 95.2495 23.6186C94.9477 22.9135 94.4326 22.3199 93.7762 21.9206C90.741 19.9027 88.0914 20.8531 88.3142 23.5923C88.4531 25.2902 90.8895 26.1141 92.7317 26.4986Z" fill="#BBE2F2"/>
    <path d="M47.5193 6.58897C48.9926 7.78302 50.8876 7.06659 51.084 5.18715C51.1411 4.42289 50.9577 3.6599 50.5594 3.00442C48.7986 -0.181324 45.9957 -0.551481 44.9393 1.98708C44.2805 3.55368 46.0604 5.40208 47.5193 6.58897Z" fill="#BBE2F2"/>
    <path d="M14.0263 16.8244C14.4096 13.2422 14.1101 9.7938 12.3254 10.6464C10.5407 11.4989 11.1659 17.4381 13.5951 21.3523L14.1029 22.8806C12.3805 19.9958 8.94997 17.5528 7.54135 18.4674C6.13273 19.3821 8.57386 20.7934 11.0198 21.72C12.8764 22.4365 13.9305 23.3129 14.4192 23.8144L16.8148 31.036C14.079 26.4771 8.65771 22.6251 6.4274 24.0699C4.19708 25.5147 8.06599 27.7619 11.9373 29.233C14.8528 30.3459 16.5297 31.7405 17.3035 32.5406L17.7826 33.9734L18.5708 33.8397L15.7248 25.2425C16.0092 24.21 16.4547 23.2285 17.0447 22.3338C18.4486 20.1415 19.5553 17.5575 17.888 17.6578C16.4506 17.7462 15.2792 20.7337 15.2049 23.695L14.2203 20.7242C13.9838 19.4384 13.9185 18.1272 14.0263 16.8244Z" fill="#1C31B5"/>
    <path d="M87.2002 65.272C87.2385 65.475 87.2817 65.6947 87.332 65.9311C87.8638 68.3956 89.1694 72.4315 92.1064 73.2244C92.1064 73.2244 90.5085 64.9138 96.2077 62.7477C101.907 60.5817 101.277 58.5208 100.951 54.8526C100.625 51.1845 99.3651 50.4848 103.32 47.0483C107.275 43.6118 106.518 38.4917 106.518 38.4917C106.518 38.4917 102.776 44.3354 98.7782 44.462C94.7799 44.5885 94.0804 47.9988 94.2505 50.5278C94.4206 53.0568 91.026 53.3434 89.1886 54.8097C87.3511 56.276 86.9966 64.0063 86.9966 64.0063C86.9966 64.0063 87.0493 64.5006 87.2002 65.272Z" fill="#009CF8"/>
    <path d="M26.2679 62.3585C26.1841 62.6427 26.0858 62.9507 25.978 63.2779C24.8401 66.712 22.5044 72.4984 18.1899 73.1814C18.1899 73.1814 21.6036 61.3387 13.8083 57.3793C6.01301 53.4198 7.22758 50.5731 8.2577 45.379C9.28781 40.1849 11.1923 39.4087 6.08248 33.8898C0.972643 28.3709 2.83882 21.1946 2.83882 21.1946C2.83882 21.1946 7.27789 30.0951 12.9579 30.9118C18.6379 31.7286 19.1122 36.6791 18.4798 40.2613C17.8473 43.8435 22.6457 44.7724 25.0389 47.1462C27.4322 49.52 26.7374 60.565 26.7374 60.565C26.7374 60.565 26.5913 61.2767 26.2679 62.3585Z" fill="#009CF8"/>
    <path d="M26.2679 62.3585C26.184 62.6427 26.0858 62.9507 25.978 63.2779C25.624 61.669 25.0509 60.1158 24.2747 58.6617C22.7415 55.7721 20.413 53.2837 18.197 52.166C14.6683 50.3893 13.2621 46.5993 13.6454 39.8792C13.8634 35.9794 10.04 33.2498 9.99927 33.2235C9.94526 33.1859 9.90849 33.1283 9.89703 33.0636C9.88558 32.9989 9.90038 32.9323 9.93818 32.8785C9.97599 32.8246 10.0337 32.788 10.0986 32.7765C10.1635 32.7651 10.2303 32.7799 10.2843 32.8176C10.452 32.9346 14.3737 35.7287 14.1389 39.9055C13.7771 46.4011 15.0971 50.0478 18.427 51.7242C20.7651 52.9016 23.1176 55.4067 24.7203 58.4277C25.3828 59.6758 25.9019 60.9944 26.2679 62.3585Z" fill="#006BDE"/>
    <path d="M32.9732 16.2011C32.9732 16.2011 34.3722 14.8566 34.3675 13.5312C34.3627 12.2058 33.4571 12.5951 32.9732 11.3604C32.4893 10.1258 31.0567 9.36875 30.2542 9.52159C29.4517 9.67443 27.7915 6.59616 25.5252 7.13348C23.259 7.6708 23.4578 10.5724 22.4804 10.9903C21.503 11.4082 21.7761 13.1396 22.2912 13.5241C22.8062 13.9085 23.0242 15.4919 23.3117 15.456C23.5992 15.4202 32.9732 16.2011 32.9732 16.2011Z" fill="#18315B"/>
    <path d="M23.5537 16.1677C23.5537 16.1677 22.6745 14.9975 22.0205 15.9647C21.3665 16.9319 22.2912 19.7856 23.8939 19.0907L23.5537 16.1677Z" fill="#F97853"/>
    <path d="M23.5417 18.2095C23.5124 18.2091 23.4841 18.1994 23.4608 18.1818C23.4375 18.1642 23.4205 18.1396 23.4123 18.1116C23.1728 17.2304 22.248 16.8722 22.2385 16.8674C22.2085 16.8521 22.1853 16.8265 22.1732 16.7952C22.1611 16.764 22.1609 16.7294 22.1728 16.6981C22.1847 16.6667 22.2077 16.6409 22.2375 16.6254C22.2673 16.6099 22.3017 16.606 22.3343 16.6142C22.3774 16.631 23.3884 17.0202 23.6734 18.0471C23.6831 18.0816 23.6786 18.1185 23.6612 18.1498C23.6437 18.1811 23.6145 18.2043 23.58 18.2143L23.5417 18.2095Z" fill="#EA5143"/>
    <path d="M22.617 17.7653C22.5929 17.7647 22.5695 17.7578 22.549 17.7453C22.5285 17.7327 22.5117 17.715 22.5003 17.6939C22.4889 17.6729 22.4832 17.6492 22.4839 17.6252C22.4847 17.6013 22.4917 17.5779 22.5044 17.5576C22.6339 17.3785 22.8093 17.2375 23.0122 17.1492C23.0418 17.1442 23.0723 17.1491 23.0988 17.163C23.1254 17.177 23.1465 17.1993 23.1591 17.2265C23.1716 17.2537 23.1749 17.2843 23.1682 17.3135C23.1616 17.3426 23.1455 17.3688 23.1224 17.388C22.9678 17.4555 22.8333 17.5616 22.7319 17.6961C22.7206 17.7167 22.704 17.7339 22.6838 17.7461C22.6636 17.7582 22.6405 17.7649 22.617 17.7653Z" fill="#EA5143"/>
    <path d="M32.621 16.1677C32.621 16.1677 33.5002 14.9975 34.1542 15.9647C34.8082 16.9319 33.8835 19.7856 32.2809 19.0907L32.621 16.1677Z" fill="#F97853"/>
    <path d="M32.633 18.2095C32.6623 18.2091 32.6906 18.1994 32.7139 18.1818C32.7372 18.1642 32.7542 18.1396 32.7624 18.1116C33.0019 17.2304 33.9267 16.8722 33.9362 16.8674C33.9662 16.8521 33.9894 16.8265 34.0015 16.7952C34.0136 16.764 34.0138 16.7294 34.0019 16.6981C33.9901 16.6667 33.967 16.6409 33.9372 16.6254C33.9074 16.6099 33.873 16.606 33.8404 16.6142C33.7973 16.631 32.7863 17.0202 32.5013 18.0471C32.4916 18.0816 32.4961 18.1185 32.5135 18.1498C32.531 18.1811 32.5602 18.2043 32.5947 18.2143L32.633 18.2095Z" fill="#EA5143"/>
    <path d="M33.5577 17.7653C33.5817 17.7647 33.6052 17.7578 33.6257 17.7453C33.6462 17.7327 33.663 17.715 33.6744 17.6939C33.6858 17.6729 33.6914 17.6492 33.6907 17.6252C33.69 17.6013 33.683 17.5779 33.6703 17.5576C33.5408 17.3785 33.3654 17.2375 33.1624 17.1492C33.1328 17.1442 33.1024 17.1491 33.0759 17.163C33.0493 17.177 33.0281 17.1993 33.0156 17.2265C33.003 17.2537 32.9998 17.2843 33.0065 17.3135C33.0131 17.3426 33.0292 17.3688 33.0523 17.388C33.2069 17.4555 33.3414 17.5616 33.4427 17.6961C33.4541 17.7167 33.4707 17.7339 33.4909 17.7461C33.5111 17.7582 33.5341 17.7649 33.5577 17.7653Z" fill="#EA5143"/>
    <path d="M30.2542 21.5146V24.3637C30.2542 24.3637 29.4037 25.8109 28.2539 25.9088C27.104 26.0067 26.0858 24.6622 26.0858 24.6622V21.7153L30.2542 21.5146Z" fill="#FFA681"/>
    <path d="M30.2542 21.5146V22.7756C29.4828 23.6281 28.1125 23.8407 26.0858 23.5446V21.7153L30.2542 21.5146Z" fill="#F97853"/>
    <path d="M33.2583 14.2189C33.2135 15.4197 33.0903 16.6163 32.8894 17.8011C32.8366 18.0757 32.7768 18.336 32.7097 18.5677C32.1108 20.6621 30.6087 24.2514 26.4092 22.7564C24.555 22.0973 23.695 20.0364 23.3117 17.942C23.0931 16.6581 22.9992 15.3561 23.0314 14.0542C23.0413 13.539 23.1857 13.0353 23.4504 12.5926C23.715 12.15 24.0908 11.7837 24.5406 11.5299C27.0201 10.1281 29.6361 10.6511 31.3586 11.3102C31.9424 11.5335 32.4405 11.935 32.7817 12.4574C33.1228 12.9798 33.2897 13.5964 33.2583 14.2189Z" fill="#FFA681"/>
    <path d="M23.3141 17.9492C23.3141 17.9492 23.7166 20.3683 24.1046 21.2591C24.4927 22.1499 25.542 22.3075 25.9373 23.0526C26.5003 24.1153 27.3579 24.9631 28.7713 24.4448C29.9451 24.0174 29.8924 23.4179 30.5512 22.9547C31.6796 22.1618 32.2282 21.283 32.2833 20.5665C32.3384 19.8501 32.8894 17.8178 32.8894 17.8178L32.2833 17.7748C32.0267 18.2891 31.742 18.789 31.4304 19.2722C30.9202 18.1569 28.4671 18.9689 28.4671 18.9689L27.9879 19.1193L27.5088 18.9689C27.5088 18.9689 25.0365 18.1808 24.5454 19.3486C24.2325 18.8881 24.0098 18.3728 23.889 17.8298L23.3141 17.9492ZM28.0023 19.4871C30.8172 19.0095 30.3141 20.6477 30.2949 20.7074C30.1187 20.8784 29.9205 21.0254 29.7056 21.1445C28.6156 21.7319 28.5078 21.6436 28.067 21.6627C27.4855 21.6638 26.9145 21.5087 26.414 21.2137C26.1309 21.0429 25.8668 20.8428 25.6259 20.6167C25.6259 20.6167 25.1922 19.1098 27.9999 19.4871H28.0023Z" fill="#18315B"/>
    <path d="M25.9588 17.0895C26.152 17.0895 26.3086 16.8436 26.3086 16.5402C26.3086 16.2369 26.152 15.991 25.9588 15.991C25.7657 15.991 25.6091 16.2369 25.6091 16.5402C25.6091 16.8436 25.7657 17.0895 25.9588 17.0895Z" fill="#18315B"/>
    <path d="M30.1224 17.0895C30.3156 17.0895 30.4722 16.8436 30.4722 16.5402C30.4722 16.2369 30.3156 15.991 30.1224 15.991C29.9292 15.991 29.7726 16.2369 29.7726 16.5402C29.7726 16.8436 29.9292 17.0895 30.1224 17.0895Z" fill="#18315B"/>
    <path d="M31.4999 14.73C31.4999 14.73 30.0625 14.1592 28.939 14.6393L29.0516 15.2578C29.0516 15.2578 30.6878 15.1193 31.5119 15.4536C31.5921 15.2183 31.5879 14.9625 31.4999 14.73Z" fill="#18315B"/>
    <path d="M24.6197 14.7348C24.6197 14.7348 26.0762 14.1593 27.1998 14.6441L27.0872 15.2674C27.0872 15.2674 25.439 15.1289 24.6101 15.4632C24.5285 15.2266 24.5319 14.9692 24.6197 14.7348Z" fill="#18315B"/>
    <path d="M28.1341 18.84C28.2985 18.8333 28.4605 18.7986 28.6132 18.7373C28.6353 18.7184 28.6508 18.6929 28.6574 18.6647C28.664 18.6364 28.6614 18.6067 28.6499 18.5801C28.6383 18.5534 28.6186 18.5311 28.5935 18.5164C28.5683 18.5017 28.5391 18.4954 28.5102 18.4985C28.3401 18.5773 28.148 18.595 27.9664 18.5486C27.9452 18.535 27.9279 18.5163 27.9162 18.4941C27.9044 18.4719 27.8986 18.4471 27.8993 18.422C27.8914 17.7317 27.9186 17.0415 27.9807 16.3539C27.9843 16.3352 27.9838 16.3159 27.9794 16.2973C27.9749 16.2787 27.9666 16.2613 27.955 16.2461C27.9434 16.231 27.9287 16.2184 27.9118 16.2093C27.895 16.2001 27.8765 16.1946 27.8574 16.1931C27.8383 16.1916 27.8191 16.1941 27.801 16.2005C27.783 16.2068 27.7665 16.2169 27.7526 16.2301C27.7387 16.2432 27.7277 16.2591 27.7204 16.2767C27.713 16.2944 27.7095 16.3134 27.71 16.3324C27.6454 17.0358 27.6182 17.7421 27.6286 18.4483C27.6322 18.515 27.6519 18.5798 27.6861 18.6372C27.7203 18.6946 27.768 18.7428 27.825 18.7779C27.9201 18.8271 28.0272 18.8486 28.1341 18.84Z" fill="#F97853"/>
    <path d="M26.4092 19.757C26.5122 20.2728 26.8548 21.2209 28.0047 21.2209C29.1546 21.2209 29.4828 20.354 29.593 19.757H26.4092Z" fill="white"/>
    <path d="M33.2582 14.219C33.2135 15.4198 33.0903 16.6163 32.8893 17.8011L32.2832 17.7582C32.2832 17.7582 32.4294 16.8268 32.4964 16.2178C32.5635 15.6089 32.6785 14.4745 32.1587 14.3336C31.6388 14.1927 31.9455 12.9007 31.222 12.3371C30.4985 11.7736 28.8982 11.2792 27.8322 11.9312C26.7661 12.5831 25.5588 12.2225 25.0677 12.3371C24.5766 12.4518 23.9106 13.1228 24.0903 13.7533C24.2699 14.3838 23.7309 14.7659 23.5992 15.425C23.4674 16.0841 23.8866 17.8322 23.8866 17.8322L23.3093 17.9492C23.0907 16.6653 22.9968 15.3633 23.029 14.0614C23.0389 13.5462 23.1833 13.0425 23.448 12.5998C23.7126 12.1572 24.0884 11.7909 24.5382 11.5371C27.0177 10.1353 29.6337 10.6583 31.3561 11.3174C31.9392 11.5399 32.4369 11.9402 32.7785 12.4612C33.12 12.9822 33.2879 13.5973 33.2582 14.219Z" fill="#18315B"/>
    <path d="M40.0211 67.149C37.3254 67.833 34.5753 68.2829 31.8017 68.4936L31.4304 68.5198C31.0535 68.5453 30.6766 68.566 30.2997 68.5819C28.4349 68.6617 26.5669 68.6298 24.7059 68.4864C24.329 68.4577 23.9529 68.4243 23.5776 68.3861L23.2159 68.3479C20.9637 68.1043 18.7312 67.7054 16.5345 67.1538C16.5129 65.1072 16.5345 58.6378 16.6639 51.6311C16.6782 50.7881 16.695 49.9379 16.7142 49.0854C16.9106 39.8386 17.2915 30.4581 17.9791 29.5029C18.6355 28.6026 20.6142 27.4587 22.5092 26.427L22.8469 26.2431L24.0807 25.5768C24.9191 25.1207 25.6426 24.7171 26.0906 24.4043V24.6622C26.0906 24.6622 27.1087 26.0067 28.2466 25.9064C29.2935 25.8156 30.0913 24.612 30.2254 24.3947C31.0044 24.8915 31.8088 25.3475 32.6354 25.7607L33.5194 26.2264L33.8548 26.4031C35.9485 27.5088 38.2052 28.7578 38.8856 29.6844C38.9517 29.7897 39.0003 29.905 39.0293 30.0259C39.4294 31.3799 39.6785 35.8696 39.8294 41.3073V41.367C39.8294 41.5867 39.8414 41.8088 39.8462 42.0309C39.8462 42.0596 39.8462 42.0882 39.8462 42.1193C39.8965 44.0298 39.9324 46.0358 39.9612 48.0513C39.9612 48.2113 39.9612 48.3713 39.9612 48.529C39.9612 48.6102 39.9612 48.689 39.9612 48.7678C39.9612 49.1658 39.966 49.5638 39.9756 49.9618C39.9756 50.2532 39.9756 50.5445 39.9756 50.8359C40.0834 58.1268 40.0522 65.0045 40.0211 67.149Z" fill="#006BDE"/>
    <path d="M39.8534 42.0356C39.1946 40.9634 38.4855 39.8672 37.8195 38.8977C37.5392 38.4917 37.2661 38.1072 37.0074 37.7562L36.993 37.7371L36.7535 37.4147C36.7409 37.3972 36.7312 37.3779 36.7247 37.3573C36.7137 37.317 36.717 37.2741 36.7341 37.2359C36.7512 37.1977 36.781 37.1665 36.8185 37.1477C36.856 37.1289 36.8988 37.1235 36.9398 37.1326C36.9808 37.1416 37.0173 37.1645 37.0433 37.1973C37.8435 38.2553 38.8688 39.7741 39.8366 41.3192V41.3789C39.8438 41.5819 39.8486 41.7968 39.8534 42.0356Z" fill="#264CBE"/>
    <path d="M38.9167 29.5315C38.9167 29.5315 43.0467 37.0756 45.5669 40.9013C45.5669 40.9013 47.0043 39.5903 48.8609 37.835C50.8804 35.9245 53.6521 32.7531 53.6521 32.7531L55.1805 34.5609C55.1805 34.5609 48.9759 45.6943 46.1922 47.0913C43.4085 48.4884 38.2867 38.5872 38.2867 38.5872L38.9167 29.5315Z" fill="#006BDE"/>
    <path d="M24.0783 25.5721C24.1573 26.1715 24.2747 26.95 24.4041 27.8336C24.4424 28.0963 24.4831 28.3685 24.5215 28.648C24.6508 29.5602 24.785 30.5584 24.9 31.5591C24.9311 31.8289 24.9599 32.0988 24.9862 32.3686C25.0868 33.3621 25.1635 34.3508 25.1898 35.2702C25.1898 35.5472 25.2018 35.8195 25.1898 36.0821C25.1942 36.7164 25.1518 37.3502 25.0629 37.9783C25.0086 38.327 24.9599 38.6677 24.9167 39.0004C24.8816 39.2758 24.8497 39.5473 24.8209 39.8148C24.7131 40.8512 24.658 41.816 24.6412 42.7259C24.6412 43.0013 24.6412 43.2719 24.6412 43.5378C24.6412 44.5695 24.7083 45.5319 24.7946 46.4489C24.8209 46.7236 24.8473 46.9934 24.876 47.2585C24.9886 48.2591 25.1156 49.212 25.2521 50.1529C25.2889 50.422 25.3248 50.691 25.3599 50.9601C25.415 51.3899 25.4677 51.8222 25.5132 52.2544C25.5588 52.6867 25.5923 53.2527 25.6067 53.8473C25.6067 54.1076 25.6067 54.3798 25.6067 54.6616C25.6067 55.5524 25.5875 56.5411 25.5468 57.5728C25.5356 57.8418 25.5236 58.1149 25.5109 58.3919C25.4653 59.3471 25.403 60.3382 25.336 61.3101C25.3168 61.584 25.2968 61.857 25.2761 62.1293C25.2018 63.1418 25.118 64.1305 25.0365 65.0475C25.0102 65.3269 24.9862 65.5992 24.9599 65.8619C24.8616 66.8721 24.7682 67.7724 24.6868 68.4888C26.5486 68.6316 28.4173 68.6627 30.2829 68.5819C30.326 67.8201 30.4458 66.5879 30.5632 65.1407C30.5848 64.8756 30.6063 64.6033 30.6279 64.3239C30.6973 63.4021 30.762 62.4135 30.8028 61.4248C30.8028 61.1525 30.8243 60.8803 30.8315 60.6057C30.8602 59.6146 30.8602 58.6283 30.8171 57.7041C30.8051 57.4247 30.7884 57.1501 30.7668 56.8826C30.7453 56.6151 30.7189 56.3429 30.6878 56.0873C30.6019 55.387 30.5619 54.6818 30.568 53.9763C30.568 53.704 30.568 53.4318 30.5895 53.1595C30.6327 52.2043 30.7357 51.2681 30.8555 50.2627C30.8866 49.9953 30.9201 49.7254 30.9537 49.4484C31.0615 48.5552 31.1741 47.6072 31.2627 46.5683C31.2867 46.3033 31.3082 46.031 31.3274 45.7516C31.3897 44.8608 31.4304 43.9056 31.4376 42.862C31.4376 42.5929 31.4376 42.3183 31.4376 42.0381C31.4376 41.1354 31.3897 40.1706 31.3154 39.1318C31.3154 39.0386 31.3034 38.9455 31.2962 38.8524C31.2819 38.6709 31.2699 38.487 31.2627 38.3031C31.2183 37.3378 31.2247 36.3709 31.2819 35.4063C31.2962 35.1325 31.3138 34.8594 31.3346 34.5872C31.4088 33.6128 31.519 32.648 31.646 31.7215C31.6843 31.4468 31.7227 31.1746 31.761 30.9071C31.9143 29.8945 32.0772 28.9393 32.2401 28.0867L32.3839 27.2796C32.4869 26.704 32.5755 26.1906 32.6402 25.756C31.8136 25.3426 31.0092 24.8867 30.2302 24.39C30.096 24.6073 29.2983 25.8228 28.2514 25.9016C27.1039 26.0019 26.0954 24.6574 26.0954 24.6574V24.3995C25.633 24.7123 24.9143 25.1159 24.0783 25.5721Z" fill="white"/>
    <path d="M24.4017 27.8335C24.44 28.0962 24.4808 28.3685 24.5191 28.6479C25.767 28.641 27.0094 28.4806 28.2179 28.1703C29.5386 27.8626 30.9087 27.8301 32.2425 28.0747L32.3863 27.2676C30.944 27.0058 29.463 27.0432 28.0358 27.3774C26.8493 27.6853 25.6278 27.8386 24.4017 27.8335Z" fill="#E3E3E3"/>
    <path d="M24.8976 31.559C24.9287 31.8289 24.9575 32.0987 24.9838 32.3686C26.0739 32.3205 27.1564 32.1645 28.2155 31.9029C29.3426 31.6412 30.5071 31.5797 31.6556 31.7214C31.6939 31.4468 31.7322 31.1745 31.7706 30.9071C30.5218 30.7555 29.256 30.8242 28.031 31.1101C27.0044 31.3645 25.9546 31.5149 24.8976 31.559Z" fill="#E3E3E3"/>
    <path d="M25.1898 35.2702C25.1898 35.5472 25.2018 35.8195 25.1898 36.0821C26.2068 36.0198 27.2162 35.8671 28.2059 35.626C29.2126 35.3931 30.2497 35.319 31.2795 35.4063C31.2939 35.1325 31.3114 34.8594 31.3322 34.5872C30.2229 34.4957 29.106 34.5762 28.0215 34.826C27.0921 35.0548 26.1448 35.2034 25.1898 35.2702Z" fill="#E3E3E3"/>
    <path d="M24.8353 39.8147C25.9774 39.7756 27.1121 39.6155 28.2203 39.3371C29.2402 39.1004 30.2915 39.027 31.3346 39.1198C31.3346 39.0267 31.3226 38.9335 31.3154 38.8404C31.3011 38.6589 31.2891 38.475 31.2819 38.2911C30.1904 38.2133 29.0933 38.3018 28.0286 38.5538C27.0081 38.8058 25.9648 38.9554 24.9144 39.0004C24.8888 39.2726 24.8624 39.5441 24.8353 39.8147Z" fill="#E3E3E3"/>
    <path d="M31.4304 68.5198L31.8017 68.4935C32.5372 64.1949 32.1132 57.8593 31.9551 55.9225C31.7922 53.9093 32.106 51.323 32.8175 48.825C33.3685 46.8859 33.0307 42.3771 32.76 38.7735C32.6833 37.7585 32.6115 36.8009 32.5683 36.0128C32.4294 33.4695 33.3541 28.7601 33.862 26.4007L33.5266 26.224C33.0163 28.5595 32.0581 33.3764 32.2042 36.0343C32.2473 36.8248 32.3192 37.7848 32.3959 38.8021C32.6666 42.3843 33.0019 46.8501 32.4677 48.7271C31.749 51.2657 31.4256 53.8998 31.5933 55.9536C31.7514 57.8927 32.1778 64.2451 31.4304 68.5198Z" fill="#264CBE"/>
    <path d="M23.8986 50.9887C24.3298 53.6371 24.1957 55.3589 24.0376 57.3506C23.9872 57.9954 23.9345 58.6593 23.8962 59.3949C23.7812 61.6994 23.3907 66.3443 23.2159 68.3503L23.5776 68.3885C23.7501 66.3801 24.143 61.7256 24.2603 59.4116C24.2963 58.6832 24.349 58.0193 24.3993 57.3793C24.5574 55.3637 24.6964 53.6228 24.258 50.9314C24.1645 50.3535 24.0639 49.766 23.9657 49.1833C23.4866 46.2961 22.9691 43.3109 23.2087 41.8804C23.2662 41.5318 23.3404 41.1354 23.4219 40.715C23.7477 38.9884 24.1406 36.8415 24.0256 34.9836C23.9106 33.1256 23.1392 28.1321 22.8469 26.2479L22.5092 26.4317C22.8134 28.4043 23.5393 33.214 23.6638 35.0098C23.7884 36.8057 23.3883 38.9502 23.0673 40.6577C22.9883 41.0804 22.9116 41.4769 22.8541 41.8303C22.6146 43.3205 23.0937 46.2029 23.6111 49.2549C23.7165 49.8257 23.8052 50.4108 23.8986 50.9887Z" fill="#264CBE"/>
    <path d="M16.7549 32.5692C16.7549 32.5692 13.0561 44.8632 12.141 49.243C11.2258 53.6228 11.154 62.731 11.154 62.731C11.154 62.731 9.53693 66.0744 9.4986 67.5646C9.45788 69.1527 10.2939 70.4136 10.1981 71.4524C10.1023 72.4912 11.372 71.93 11.0126 69.8237C10.6533 67.7174 11.6714 65.8141 12.1098 65.8762C12.5482 65.9383 11.7457 68.1735 12.1362 68.9807C12.5267 69.7879 13.0297 68.2213 13.5328 67.2708C14.0527 66.2845 14.0119 64.1329 13.7867 62.5973C13.5616 61.0617 16.3429 51.7314 16.3572 49.0281L19.8836 37.1162C19.8836 37.1162 18.7241 32.1417 16.7549 32.5692Z" fill="#FFA681"/>
    <path d="M20.3459 36.8153C20.2214 37.6058 19.783 38.9646 19.2152 40.6673L19.0691 41.1067V41.1282L18.6259 42.456C17.9982 44.3545 17.3035 46.5158 16.7214 48.7582C16.5201 49.5224 16.3333 50.2938 16.168 51.0627C15.9548 52.0443 15.7751 53.0234 15.6433 53.981C15.1642 57.4318 14.2659 61.8045 14.2659 61.8045C12.9387 62.3466 10.8665 61.6301 10.8665 61.6301C10.8665 61.6301 10.8138 55.3327 11.1061 52.8873C11.4236 50.3144 11.894 47.7626 12.5147 45.2453C14.103 38.4416 16.8986 31.7859 17.6652 30.0187L17.8066 29.6916H18.4654C19.7614 30.5178 20.6837 34.6875 20.3459 36.8153Z" fill="#006BDE"/>
    <path d="M95.0027 67.7962C93.2495 68.279 91.4666 68.6476 89.6653 68.8995C89.0457 68.9855 88.4268 69.0572 87.8087 69.1145C86.9751 69.1909 86.1414 69.2426 85.3077 69.2697C83.9288 69.3113 82.5486 69.281 81.1729 69.179C78.4687 68.9763 75.7906 68.5124 73.1763 67.7939C73.1524 65.315 73.1883 56.4288 73.3752 47.8579C73.3847 47.4726 73.3935 47.0889 73.4015 46.7068C73.4015 46.6256 73.4015 46.5444 73.4015 46.468C73.4015 46.3916 73.4015 46.2913 73.4015 46.2029C73.4015 45.9307 73.4159 45.6608 73.4207 45.391C73.4351 44.8401 73.4494 44.294 73.4638 43.7527L73.4925 42.7975C73.4925 42.7306 73.4925 42.6661 73.4925 42.5993L73.5117 41.9736C73.5117 41.9091 73.5117 41.8446 73.5117 41.7802C73.5117 41.5891 73.5237 41.3981 73.5309 41.2094C73.5381 41.0207 73.5309 40.8894 73.5476 40.7318C73.7537 34.9502 74.0555 30.3889 74.4891 29.7465C75.2222 28.6575 77.7184 27.2103 79.7259 26.0306C80.4446 25.6126 81.2951 25.1756 81.7838 24.8532C82.5024 25.4264 83.0151 25.9422 84.0716 25.9064C85.255 25.8658 85.5449 25.1565 85.9881 24.5499C86.2636 24.729 86.9631 25.2998 87.3272 25.5052C87.6386 25.6891 87.974 25.8825 88.3262 26.0831C88.87 26.3935 89.4473 26.7231 90.0199 27.0574C90.8679 27.5542 91.6968 28.0676 92.3987 28.5596C92.9749 28.9294 93.4863 29.3908 93.9127 29.9256C94.3056 30.513 94.5596 34.3173 94.7225 39.3228C94.7225 39.4971 94.7225 39.6762 94.7416 39.8553C94.7416 39.8768 94.7416 39.8983 94.7416 39.9198C94.7416 40.1013 94.7536 40.2876 94.7584 40.4739C94.7744 41.0375 94.7903 41.6122 94.8063 42.1981C94.8063 42.3223 94.8063 42.4369 94.8063 42.5706C94.8063 42.7044 94.8063 42.7569 94.8063 42.85L94.8231 43.5665C94.8231 43.6142 94.8231 43.6644 94.8231 43.7121C94.8375 44.3545 94.8494 45.0065 94.8614 45.6632C94.8614 45.8559 94.8614 46.0485 94.8614 46.2411C95.0722 55.2563 95.0387 65.1335 95.0027 67.7962Z" fill="#006BDE"/>
    <path d="M81.2711 30.8736C81.2271 30.8719 81.1851 30.8542 81.1531 30.824C81.1212 30.7937 81.1013 30.7529 81.0972 30.7092C81.0931 30.6654 81.105 30.6216 81.1309 30.586C81.1567 30.5504 81.1946 30.5253 81.2376 30.5154C85.8371 29.6462 87.2266 26.6945 87.2266 26.6658C87.2347 26.6418 87.2478 26.6198 87.2649 26.6011C87.2821 26.5825 87.303 26.5676 87.3263 26.5575C87.3495 26.5474 87.3747 26.5422 87.4001 26.5423C87.4255 26.5425 87.4506 26.5479 87.4737 26.5583C87.4969 26.5686 87.5176 26.5837 87.5346 26.6026C87.5515 26.6214 87.5644 26.6436 87.5722 26.6676C87.5801 26.6917 87.5828 26.7172 87.5802 26.7423C87.5776 26.7675 87.5698 26.7919 87.5572 26.8139C87.4997 26.9428 86.0767 29.9662 81.2951 30.8736H81.2711Z" fill="#264CBE"/>
    <path d="M75.6582 38.8141C75.6536 38.8345 75.6455 38.8539 75.6342 38.8715L75.421 39.2106V39.2297C75.1815 39.5998 74.9419 40.0058 74.7023 40.4237C74.3166 41.0972 73.9166 41.8279 73.5261 42.573L73.5453 41.9473C73.5453 41.8829 73.5453 41.8184 73.5453 41.7539C74.1753 40.5861 74.8054 39.4948 75.3324 38.6661C75.3556 38.6312 75.3902 38.6055 75.4303 38.5931C75.4704 38.5808 75.5136 38.5827 75.5525 38.5984C75.5914 38.6141 75.6236 38.6428 75.6437 38.6795C75.6639 38.7162 75.6707 38.7587 75.663 38.7998L75.6582 38.8141Z" fill="#264CBE"/>
    <path d="M98.8381 32.1083C98.8381 32.1083 104.719 30.2241 106.461 26.3768C106.964 25.2616 102.817 13.9587 102.817 13.9587L100.814 14.0542C100.814 14.0542 101.385 17.9803 101.732 20.2036C102.017 22.0305 102.477 24.2156 102.63 24.9344L102.683 25.1732L102.386 25.2282C99.6382 25.7846 96.1287 27.5685 96.1287 27.5685L98.8381 32.1083Z" fill="#FFA681"/>
    <path d="M104.161 26.2502C104.202 26.2795 104.252 26.2917 104.301 26.284C104.351 26.2764 104.395 26.2497 104.425 26.2096C104.44 26.1899 104.451 26.1674 104.457 26.1433C104.463 26.1192 104.464 26.0942 104.461 26.0696C104.457 26.0451 104.448 26.0215 104.435 26.0005C104.422 25.9794 104.404 25.9612 104.384 25.9469C103.824 25.5659 103.239 25.2236 102.633 24.9225L102.685 25.1613L102.388 25.2162C103.003 25.5197 103.595 25.8652 104.161 26.2502Z" fill="#F97853"/>
    <path d="M89.8354 26.9309C89.8354 26.9309 88.0555 31.0934 92.5856 33.4098C95.7215 35.0146 102.863 30.8259 102.863 30.8259L100.319 25.4383C100.319 25.4383 93.7858 28.1249 89.8354 26.9309Z" fill="#006BDE"/>
    <path d="M101.792 7.58478C101.615 7.70896 101.651 8.47316 101.73 9.19437L101.653 9.20631C101.442 8.25107 101.023 6.61043 100.664 6.92328C100.424 7.12865 100.743 8.53764 100.958 9.38064L100.826 9.42363C100.556 8.42301 99.9736 6.4958 99.588 6.87074C99.3292 7.10955 99.8275 8.81705 100.101 9.68393L99.988 9.72931C99.7245 8.88869 99.1615 7.3006 98.7758 7.67314C98.4261 8.00748 99.4179 10.4099 99.4179 10.4099L99.6814 11.3532C99.6814 11.3532 99.37 11.487 98.8836 10.9377C98.3973 10.3884 97.8152 10.2929 98.2201 11.0858C98.6776 11.9837 99.3532 12.6261 99.6574 13.2613C99.9617 13.8966 100.891 14.0948 100.891 14.0948L102.772 14.004C102.772 14.004 103.136 10.8374 102.434 9.32572C102.314 8.43973 102.101 7.36985 101.792 7.58478Z" fill="#FFA681"/>
    <path d="M78.5329 14.89C78.5329 18.0829 80.5045 20.2824 83.705 20.2824C86.9056 20.2824 89.1407 17.9158 89.1407 14.7253C89.1488 13.8969 89.0059 13.074 88.7191 12.2966C88.7023 12.2536 88.6855 12.2106 88.6688 12.1676C88.6352 12.084 88.5993 12.0028 88.5609 11.9288C88.5058 11.8046 88.4436 11.69 88.3765 11.5682C87.5428 10.0732 86.0479 9.12276 84.0404 9.12276C80.2026 9.11559 78.5329 11.7067 78.5329 14.89Z" fill="#18315B"/>
    <path d="M79.254 16.2632C79.254 16.2632 78.3652 15.0691 77.704 16.0578C77.0428 17.0465 77.9772 19.9241 79.5966 19.2173L79.254 16.2632Z" fill="#F97853"/>
    <path d="M79.242 18.3265C79.2121 18.3265 79.1829 18.3167 79.1591 18.2986C79.1353 18.2805 79.1182 18.255 79.1103 18.2262C78.8707 17.3355 77.9316 16.9725 77.9125 16.9701C77.8785 16.9574 77.8509 16.9318 77.8359 16.8989C77.8208 16.866 77.8195 16.8285 77.8322 16.7946C77.8449 16.7607 77.8706 16.7332 77.9036 16.7182C77.9366 16.7032 77.9743 16.7019 78.0083 16.7146C78.0514 16.7313 79.0719 17.1253 79.3618 18.1474C79.3665 18.1647 79.3678 18.1827 79.3655 18.2004C79.3633 18.2182 79.3575 18.2353 79.3486 18.2508C79.3397 18.2663 79.3279 18.2799 79.3137 18.2909C79.2995 18.3018 79.2833 18.3099 79.266 18.3146L79.242 18.3265Z" fill="#EA5143"/>
    <path d="M78.3053 17.8776C78.2807 17.8776 78.2566 17.8711 78.2354 17.8586C78.2142 17.8461 78.1968 17.8282 78.1851 17.8066C78.1733 17.7851 78.1676 17.7608 78.1685 17.7363C78.1694 17.7118 78.177 17.688 78.1904 17.6674C78.321 17.4864 78.4981 17.3437 78.703 17.2543C78.7191 17.2411 78.7379 17.2318 78.7582 17.227C78.7784 17.2222 78.7995 17.2221 78.8198 17.2266C78.84 17.2312 78.859 17.2403 78.8752 17.2533C78.8914 17.2663 78.9045 17.2828 78.9133 17.3015C78.9221 17.3203 78.9266 17.3408 78.9263 17.3615C78.9259 17.3823 78.9209 17.4026 78.9114 17.4211C78.902 17.4396 78.8885 17.4557 78.8719 17.4681C78.8553 17.4806 78.836 17.4891 78.8156 17.4931C78.6592 17.5609 78.523 17.6678 78.4203 17.8035C78.4094 17.8249 78.393 17.8429 78.3728 17.8559C78.3526 17.8689 78.3294 17.8764 78.3053 17.8776Z" fill="#EA5143"/>
    <path d="M88.4196 16.2632C88.4196 16.2632 89.3084 15.0691 89.9696 16.0578C90.6307 17.0465 89.6965 19.9241 88.077 19.2173L88.4196 16.2632Z" fill="#F97853"/>
    <path d="M88.4316 18.3265C88.4616 18.3265 88.4907 18.3167 88.5145 18.2986C88.5383 18.2805 88.5555 18.255 88.5634 18.2262C88.8029 17.3355 89.7396 16.9725 89.7612 16.9701C89.778 16.9638 89.7934 16.9543 89.8066 16.9421C89.8197 16.9299 89.8303 16.9152 89.8378 16.8989C89.8452 16.8826 89.8494 16.865 89.85 16.8471C89.8506 16.8292 89.8477 16.8113 89.8414 16.7946C89.8351 16.7778 89.8256 16.7624 89.8133 16.7493C89.8011 16.7362 89.7864 16.7256 89.77 16.7182C89.7537 16.7108 89.736 16.7066 89.718 16.706C89.7001 16.7054 89.6822 16.7083 89.6653 16.7146C89.6222 16.7313 88.6017 17.1253 88.3118 18.1474C88.3071 18.1647 88.3058 18.1827 88.3081 18.2004C88.3104 18.2182 88.3161 18.2353 88.325 18.2508C88.3339 18.2663 88.3458 18.2799 88.36 18.2909C88.3741 18.3018 88.3903 18.3099 88.4076 18.3146L88.4316 18.3265Z" fill="#EA5143"/>
    <path d="M89.3563 17.8776C89.3809 17.8776 89.4051 17.8711 89.4262 17.8586C89.4474 17.8461 89.4648 17.8282 89.4766 17.8066C89.4884 17.7851 89.4941 17.7608 89.4932 17.7363C89.4922 17.7118 89.4847 17.688 89.4713 17.6674C89.3406 17.4864 89.1636 17.3437 88.9586 17.2543C88.9426 17.2411 88.9237 17.2318 88.9035 17.227C88.8832 17.2222 88.8622 17.2221 88.8419 17.2266C88.8216 17.2312 88.8026 17.2403 88.7864 17.2533C88.7702 17.2663 88.7572 17.2828 88.7483 17.3015C88.7395 17.3203 88.735 17.3408 88.7354 17.3615C88.7357 17.3823 88.7408 17.4026 88.7502 17.4211C88.7596 17.4396 88.7731 17.4557 88.7897 17.4681C88.8064 17.4806 88.8256 17.4891 88.846 17.4931C89.0024 17.5609 89.1386 17.6678 89.2413 17.8035C89.2522 17.8249 89.2686 17.8429 89.2888 17.8559C89.309 17.8689 89.3323 17.8764 89.3563 17.8776Z" fill="#EA5143"/>
    <path d="M86.0264 21.6675V24.5332C86.0264 24.5332 85.1664 25.9947 84.0045 26.095C82.8426 26.1953 81.8125 24.8365 81.8125 24.8365V21.8705L86.0264 21.6675Z" fill="#FFA681"/>
    <path d="M86.0264 21.6675V22.9427C85.2478 23.8048 83.8703 24.0198 81.8125 23.7189V21.8705L86.0264 21.6675Z" fill="#F97853"/>
    <path d="M89.064 14.293C89.0186 15.5074 88.8937 16.7175 88.6903 17.9157C88.6376 18.1951 88.5777 18.4554 88.5106 18.6895C87.9045 20.8053 86.3881 24.4353 82.1431 22.9236C80.2673 22.2573 79.4001 20.1749 79.012 18.0566C78.7914 16.7592 78.6967 15.4437 78.7294 14.1282C78.7401 13.6086 78.8862 13.1007 79.1533 12.6544C79.4204 12.2081 79.7994 11.8387 80.253 11.5825C82.7588 10.1663 85.4035 10.6941 87.1427 11.3604C87.7318 11.5854 88.2347 11.99 88.5797 12.5165C88.9247 13.0431 89.0941 13.6648 89.064 14.293Z" fill="#FFA681"/>
    <path d="M81.6616 17.1922C81.8574 17.1922 82.0161 16.9441 82.0161 16.6381C82.0161 16.3321 81.8574 16.0841 81.6616 16.0841C81.4657 16.0841 81.307 16.3321 81.307 16.6381C81.307 16.9441 81.4657 17.1922 81.6616 17.1922Z" fill="#18315B"/>
    <path d="M85.8348 17.1802C86.0306 17.1802 86.1893 16.9321 86.1893 16.6262C86.1893 16.3202 86.0306 16.0721 85.8348 16.0721C85.639 16.0721 85.4802 16.3202 85.4802 16.6262C85.4802 16.9321 85.639 17.1802 85.8348 17.1802Z" fill="#18315B"/>
    <path d="M86.9894 14.7205C86.9894 14.7205 85.8731 14.281 85.0131 14.6512L85.0993 15.1288C85.0993 15.1288 86.3618 15.0214 86.9966 15.2793C87.0594 15.0978 87.0568 14.9002 86.9894 14.7205Z" fill="#18315B"/>
    <path d="M80.4926 14.7205C80.4926 14.7205 81.6089 14.281 82.4689 14.6512L82.3827 15.1288C82.3827 15.1288 81.1202 15.0214 80.4854 15.2793C80.4226 15.0978 80.4251 14.9002 80.4926 14.7205Z" fill="#18315B"/>
    <path d="M83.8847 18.9641C84.0549 18.9582 84.2227 18.9226 84.3806 18.859C84.4143 18.8454 84.4411 18.819 84.4553 18.7856C84.4695 18.7523 84.4697 18.7147 84.4561 18.6811C84.4424 18.6475 84.4159 18.6207 84.3825 18.6066C84.349 18.5925 84.3113 18.5923 84.2776 18.6059C84.1062 18.6858 83.9125 18.7044 83.729 18.6584C83.708 18.6447 83.6908 18.6259 83.6791 18.6037C83.6674 18.5816 83.6615 18.5569 83.6619 18.5318C83.6544 17.8343 83.6824 17.1369 83.7458 16.4422C83.7486 16.4061 83.737 16.3704 83.7134 16.3428C83.6898 16.3153 83.6562 16.2982 83.62 16.2954C83.5838 16.2925 83.5479 16.3041 83.5203 16.3276C83.4927 16.3512 83.4755 16.3847 83.4727 16.4208C83.4073 17.1352 83.3801 17.8527 83.3912 18.5701C83.3949 18.6373 83.4149 18.7027 83.4496 18.7605C83.4842 18.8183 83.5324 18.8669 83.5901 18.902C83.681 18.9483 83.7827 18.9697 83.8847 18.9641Z" fill="#F97853"/>
    <path d="M82.0473 19.6567C82.2749 20.4448 82.9217 21.2281 83.8129 21.24C84.704 21.2519 85.3485 20.4448 85.576 19.6567H82.0473Z" fill="white"/>
    <path d="M83.7362 22.095C83.9701 22.0879 84.1987 22.0239 84.4022 21.9087C84.4179 21.8995 84.4317 21.8872 84.4427 21.8727C84.4536 21.8581 84.4616 21.8415 84.4662 21.8239C84.4708 21.8063 84.4718 21.7879 84.4692 21.7699C84.4667 21.7519 84.4606 21.7345 84.4513 21.7189C84.442 21.7032 84.4297 21.6895 84.4151 21.6785C84.4005 21.6676 84.3839 21.6596 84.3662 21.6551C84.3486 21.6505 84.3302 21.6495 84.3121 21.652C84.294 21.6546 84.2766 21.6606 84.2609 21.6699C84.1002 21.76 83.9204 21.8107 83.7362 21.818C83.5609 21.8094 83.3901 21.7595 83.2379 21.6723C83.2062 21.6533 83.1681 21.6476 83.1322 21.6566C83.0962 21.6656 83.0653 21.6884 83.0463 21.72C83.0272 21.7517 83.0216 21.7896 83.0305 21.8255C83.0395 21.8613 83.0624 21.8921 83.0942 21.9111C83.2897 22.0243 83.5103 22.0875 83.7362 22.095Z" fill="#F97853"/>
    <path d="M88.9179 16.287H88.2974C88.3669 15.6661 88.4651 14.5724 87.9525 14.4171C86.3354 13.9228 88.4316 12.7837 87.7129 12.2153C86.9942 11.6469 85.1688 11.8905 83.9063 11.8499C82.6438 11.8093 80.5931 11.826 80.0996 11.9407C79.6061 12.0553 79.8744 12.8768 80.0565 13.5144C80.2386 14.1521 79.448 14.8542 79.3139 15.5133C79.2792 15.77 79.2792 16.0303 79.3139 16.287H78.7964C78.7341 15.4846 78.7269 14.7395 78.7365 14.1377C78.7449 13.6172 78.8891 13.1078 79.155 12.6598C79.4209 12.2117 79.7993 11.8404 80.2529 11.5825C82.7588 10.1663 85.4035 10.6941 87.1427 11.3604C87.731 11.5862 88.2328 11.9911 88.5769 12.5176C88.921 13.0441 89.0898 13.6653 89.0592 14.293C89.0353 14.9043 88.9898 15.5992 88.9179 16.287Z" fill="#18315B"/>
    <path d="M81.5993 18.2453C81.2927 18.2453 80.9931 18.1547 80.7382 17.9849C80.4833 17.8151 80.2846 17.5738 80.1673 17.2915C80.05 17.0092 80.0193 16.6985 80.0791 16.3988C80.1389 16.099 80.2865 15.8237 80.5033 15.6076C80.7201 15.3916 80.9962 15.2444 81.2969 15.1848C81.5976 15.1252 81.9092 15.1558 82.1924 15.2727C82.4756 15.3897 82.7177 15.5877 82.888 15.8418C83.0583 16.0959 83.1492 16.3946 83.1492 16.7002C83.1492 16.9031 83.1091 17.104 83.0313 17.2915C82.9534 17.4789 82.8392 17.6493 82.6953 17.7927C82.5513 17.9362 82.3805 18.05 82.1924 18.1277C82.0044 18.2053 81.8028 18.2453 81.5993 18.2453ZM81.5993 15.3963C81.3406 15.3963 81.0877 15.4728 80.8726 15.616C80.6575 15.7593 80.4898 15.963 80.3908 16.2012C80.2918 16.4395 80.2659 16.7016 80.3164 16.9546C80.3669 17.2075 80.4914 17.4398 80.6744 17.6222C80.8573 17.8046 81.0904 17.9287 81.3441 17.979C81.5978 18.0294 81.8608 18.0035 82.0998 17.9048C82.3388 17.8062 82.5431 17.639 82.6868 17.4246C82.8306 17.2102 82.9073 16.9581 82.9073 16.7002C82.9066 16.3546 82.7686 16.0233 82.5235 15.7789C82.2783 15.5345 81.946 15.3969 81.5993 15.3963Z" fill="white"/>
    <path d="M85.8348 18.2453C85.5282 18.2453 85.2285 18.1547 84.9736 17.9849C84.7188 17.8151 84.5201 17.5738 84.4028 17.2915C84.2855 17.0092 84.2548 16.6985 84.3146 16.3988C84.3744 16.099 84.522 15.8237 84.7388 15.6076C84.9555 15.3916 85.2317 15.2444 85.5324 15.1848C85.833 15.1252 86.1447 15.1558 86.4279 15.2727C86.7111 15.3897 86.9532 15.5877 87.1235 15.8418C87.2938 16.0959 87.3847 16.3946 87.3847 16.7002C87.3847 17.11 87.2214 17.503 86.9307 17.7927C86.6401 18.0825 86.2458 18.2453 85.8348 18.2453ZM85.8348 15.3963C85.5761 15.3963 85.3232 15.4728 85.1081 15.616C84.893 15.7593 84.7253 15.963 84.6263 16.2012C84.5273 16.4395 84.5014 16.7016 84.5519 16.9546C84.6024 17.2075 84.7269 17.4398 84.9099 17.6222C85.0928 17.8046 85.3258 17.9287 85.5796 17.979C85.8333 18.0294 86.0963 18.0035 86.3353 17.9048C86.5743 17.8062 86.7786 17.639 86.9223 17.4246C87.066 17.2102 87.1428 16.9581 87.1428 16.7002C87.1421 16.3546 87.0041 16.0233 86.759 15.7789C86.5138 15.5345 86.1815 15.3969 85.8348 15.3963Z" fill="white"/>
    <path d="M80.3128 16.2035C80.2968 16.2035 80.2809 16.2004 80.2661 16.1943C80.2513 16.1881 80.2378 16.1791 80.2266 16.1676C80.0096 15.9679 79.7492 15.8209 79.4658 15.738C79.1824 15.6552 78.8836 15.6387 78.5928 15.69C78.561 15.6973 78.5276 15.6917 78.5 15.6745C78.4724 15.6572 78.4528 15.6297 78.4454 15.5981C78.4381 15.5664 78.4438 15.5331 78.4611 15.5056C78.4784 15.4781 78.5059 15.4585 78.5377 15.4512C78.8694 15.389 79.2113 15.4068 79.5347 15.5032C79.8581 15.5996 80.1536 15.7717 80.3967 16.0052C80.4141 16.0219 80.426 16.0435 80.4309 16.0671C80.4358 16.0907 80.4334 16.1152 80.4241 16.1374C80.4148 16.1596 80.3989 16.1785 80.3786 16.1915C80.3584 16.2046 80.3346 16.2113 80.3104 16.2106L80.3128 16.2035Z" fill="white"/>
    <path d="M87.1499 16.2035C87.1232 16.2049 87.0967 16.1973 87.0748 16.1819C87.0529 16.1665 87.0367 16.1442 87.029 16.1187C87.0213 16.0931 87.0224 16.0656 87.0321 16.0408C87.0419 16.0159 87.0598 15.995 87.0829 15.9814C87.1284 15.9503 88.2256 15.2458 89.1575 15.3987C89.1892 15.4038 89.2177 15.4212 89.2365 15.4472C89.2554 15.4731 89.2631 15.5055 89.2581 15.5372C89.253 15.5689 89.2355 15.5972 89.2094 15.616C89.1834 15.6348 89.1509 15.6426 89.1191 15.6375C88.2807 15.499 87.2266 16.1772 87.2146 16.1844C87.1953 16.1968 87.1729 16.2034 87.1499 16.2035Z" fill="white"/>
    <path d="M84.371 16.3539C84.2925 16.2469 84.193 16.157 84.0785 16.0897C83.964 16.0223 83.8369 15.979 83.705 15.9623C83.5772 15.9775 83.4543 16.0202 83.3447 16.0874C83.2351 16.1546 83.1414 16.2447 83.0702 16.3516L82.869 16.2202C82.9618 16.0792 83.0854 15.9611 83.2307 15.8746C83.3759 15.7882 83.5389 15.7357 83.7074 15.7211C83.8779 15.7365 84.0431 15.7882 84.1919 15.8727C84.3406 15.9571 84.4695 16.0724 84.5698 16.2107L84.371 16.3539Z" fill="white"/>
    <path d="M75.1479 38.5873C74.1091 40.5563 72.9215 42.4435 71.5952 44.2328C71.0732 44.9291 70.4904 45.5781 69.8536 46.1719C68.9097 47.0221 67.9874 47.4663 67.2376 47.0889C64.4539 45.6895 58.2493 34.5585 58.2493 34.5585L59.7777 32.7507C59.7777 32.7507 62.5398 35.9293 64.5689 37.8326C66.4327 39.5879 67.8629 40.899 67.8629 40.899C68.1216 40.5073 68.3947 40.0798 68.6822 39.6261C68.9696 39.1724 69.3002 38.635 69.6212 38.1097C71.9474 34.303 74.5274 29.7346 74.5274 29.7346L75.1479 38.5873Z" fill="#FFA681"/>
    <path d="M71.5952 44.2351C71.0732 44.9315 70.4904 45.5804 69.8536 46.1743L68.6702 39.6285C68.9744 39.1509 69.2883 38.6374 69.6093 38.112L71.5952 44.2351Z" fill="#F97853"/>
    <path d="M74.5154 29.7369L68.9385 38.4822L70.8094 46.1743L75.4258 38.6924C75.4258 38.6924 75.9864 33.5555 74.5154 29.7369Z" fill="#006BDE"/>
    <path d="M65.3834 55.1034C60.7359 58.1268 52.2076 57.8904 46.8438 55.1034C47.3564 51.9225 48.0416 48.7391 47.8859 44.5074C47.8699 44.0441 47.8499 43.5832 47.826 43.1247C47.8052 42.7267 47.7821 42.3286 47.7565 41.9306C47.2942 34.8881 46.0796 29.1303 46.6809 28.3876C47.0364 27.9858 47.4479 27.6368 47.9026 27.3512C48.1119 27.2095 48.3347 27.0662 48.571 26.9213C49.1268 26.5822 49.7449 26.2431 50.3677 25.9112C51.841 25.1279 53.3383 24.3995 54.0881 23.9028C54.7026 24.2081 55.3759 24.3775 56.0621 24.3995H56.1699C56.8561 24.3774 57.5294 24.208 58.1439 23.9028C58.8386 24.3637 60.149 25.0085 61.4978 25.7082C62.4448 26.1891 63.3645 26.7217 64.2527 27.3034C64.6903 27.5826 65.0863 27.9219 65.429 28.3112C65.7236 28.679 65.599 30.2981 65.3475 32.6934C65.1079 35.0505 64.727 38.1646 64.5019 41.5843C64.4396 42.5396 64.3893 43.5092 64.3533 44.4954C64.2024 48.7391 64.8732 51.9249 65.3834 55.1034Z" fill="#009CF8"/>
    <path d="M55.3386 32.9847C55.2931 32.9859 55.2488 32.9698 55.2147 32.9397C55.1806 32.9095 55.1593 32.8676 55.1551 32.8224C55.1508 32.7772 55.1639 32.7321 55.1918 32.6962C55.2196 32.6602 55.2601 32.6362 55.3051 32.6289C59.8567 31.7668 61.2414 28.8414 61.2558 28.8079C61.2655 28.7864 61.2794 28.7671 61.2967 28.751C61.314 28.7348 61.3342 28.7222 61.3564 28.7139C61.3785 28.7056 61.4021 28.7017 61.4257 28.7025C61.4493 28.7032 61.4726 28.7086 61.4941 28.7184C61.5157 28.7281 61.5351 28.7419 61.5513 28.7591C61.5675 28.7764 61.5801 28.7966 61.5884 28.8186C61.5968 28.8407 61.6007 28.8642 61.5999 28.8877C61.5991 28.9113 61.5937 28.9345 61.584 28.956C61.5265 29.0826 60.1179 32.082 55.3721 32.9799L55.3386 32.9847Z" fill="#006BDE"/>
    <path d="M61.4858 25.7177C60.5802 27.7763 58.3547 29.9089 55.4584 29.4098C52.6555 28.9321 51.326 27.4491 50.3653 25.9207C51.8386 25.135 53.3359 24.409 54.0857 23.9123C54.7004 24.217 55.3736 24.3864 56.0597 24.4091H56.1675C56.8536 24.3864 57.5268 24.217 58.1415 23.9123C58.8386 24.3637 60.149 25.0156 61.4858 25.7177Z" fill="#FFA681"/>
    <path d="M59.0662 24.0628C59.0474 24.0624 59.0288 24.0659 59.0114 24.0728C58.9939 24.0797 58.9781 24.0901 58.9647 24.1032C58.9513 24.1163 58.9407 24.1319 58.9334 24.1492C58.9262 24.1664 58.9224 24.185 58.9224 24.2037C58.9224 24.3183 58.8745 27.0407 56.4238 27.2509C54.1504 27.4467 53.2089 25.2783 52.919 24.3852C52.9108 24.3593 52.8946 24.3368 52.8726 24.3209C52.8506 24.305 52.824 24.2966 52.7969 24.2968H52.7705C52.7502 24.2965 52.7301 24.3011 52.7119 24.3101C52.6937 24.3192 52.678 24.3324 52.666 24.3488C52.654 24.3652 52.6462 24.3842 52.6431 24.4043C52.64 24.4243 52.6418 24.4448 52.6483 24.464C52.9574 25.3929 53.9492 27.6354 56.2657 27.5518H56.4478C59.1596 27.313 59.2075 24.2514 59.2075 24.2204C59.2095 24.2006 59.2074 24.1806 59.2012 24.1617C59.195 24.1428 59.185 24.1254 59.1717 24.1105C59.1584 24.0957 59.1421 24.0838 59.124 24.0756C59.1058 24.0674 59.0861 24.063 59.0662 24.0628Z" fill="white"/>
    <path d="M60.7982 9.59793C60.7982 9.59793 62.9878 12.9795 62.7482 16.502C62.5087 20.0244 63.0717 24.0914 59.9094 23.9051C56.7472 23.7188 51.108 25.1684 49.3137 22.4245C47.5193 19.6805 60.7982 9.59793 60.7982 9.59793Z" fill="#18315B"/>
    <path d="M61.6104 15.8166C61.6104 15.8166 62.1781 20.9224 59.749 22.329C57.3198 23.7356 55.559 22.1642 55.559 22.1642C55.559 22.1642 60.6809 15.05 61.6104 15.8166Z" fill="#000B29"/>
    <path d="M51.5056 15.7927C51.5056 15.7927 50.6336 14.6321 49.9844 15.5921C49.3352 16.5521 50.2527 19.3844 51.841 18.6967L51.5056 15.7927Z" fill="#F97853"/>
    <path d="M51.5056 17.8155C51.4763 17.8155 51.4478 17.8059 51.4244 17.7882C51.401 17.7705 51.3841 17.7457 51.3763 17.7175C51.1367 16.8435 50.2216 16.4877 50.212 16.4853C50.1889 16.4675 50.1723 16.4427 50.1647 16.4146C50.157 16.3866 50.1587 16.3568 50.1695 16.3298C50.1804 16.3028 50.1997 16.2801 50.2247 16.2651C50.2496 16.25 50.2788 16.2435 50.3078 16.2465C50.6184 16.3718 50.898 16.5629 51.1272 16.8066C51.3563 17.0503 51.5296 17.3408 51.635 17.6578C51.6397 17.6748 51.6411 17.6925 51.6389 17.7099C51.6368 17.7274 51.6312 17.7442 51.6226 17.7595C51.6139 17.7748 51.6023 17.7883 51.5884 17.7991C51.5745 17.8099 51.5586 17.8179 51.5416 17.8226L51.5056 17.8155Z" fill="#EA5143"/>
    <path d="M50.5833 17.376C50.5594 17.3759 50.5359 17.3694 50.5153 17.3571C50.4947 17.3449 50.4778 17.3274 50.4663 17.3064C50.4548 17.2855 50.4491 17.2618 50.4499 17.2379C50.4507 17.214 50.4579 17.1908 50.4707 17.1706C50.5989 16.9928 50.7727 16.8526 50.9738 16.7647C51.0042 16.7571 51.0362 16.7603 51.0644 16.7738C51.0926 16.7873 51.1152 16.8102 51.1283 16.8385C51.1413 16.8668 51.1441 16.8988 51.136 16.9289C51.1279 16.9591 51.1095 16.9854 51.084 17.0035C50.9304 17.0703 50.7967 17.1756 50.6959 17.3091C50.6845 17.329 50.6681 17.3455 50.6484 17.3572C50.6287 17.3689 50.6063 17.3754 50.5833 17.376Z" fill="#EA5143"/>
    <path d="M60.5083 15.7927C60.5083 15.7927 61.3803 14.6321 62.0295 15.5921C62.6787 16.5521 61.7612 19.3844 60.1729 18.6967L60.5083 15.7927Z" fill="#F97853"/>
    <path d="M60.5179 17.8155C60.5473 17.8155 60.5758 17.8059 60.5992 17.7882C60.6225 17.7706 60.6394 17.7457 60.6473 17.7176C60.894 16.8435 61.8067 16.4829 61.8067 16.4829C61.8298 16.4651 61.8464 16.4403 61.8541 16.4123C61.8617 16.3842 61.86 16.3544 61.8492 16.3274C61.8384 16.3005 61.819 16.2777 61.794 16.2627C61.7691 16.2476 61.7399 16.2411 61.7109 16.2441C61.4003 16.3694 61.1207 16.5605 60.8916 16.8042C60.6624 17.0479 60.4892 17.3384 60.3838 17.6555C60.379 17.6724 60.3777 17.6901 60.3798 17.7075C60.382 17.725 60.3875 17.7419 60.3962 17.7572C60.4049 17.7725 60.4165 17.7859 60.4304 17.7967C60.4443 17.8076 60.4602 17.8155 60.4772 17.8202L60.5179 17.8155Z" fill="#EA5143"/>
    <path d="M61.4355 17.376C61.4594 17.3759 61.4829 17.3694 61.5035 17.3571C61.5241 17.3449 61.541 17.3274 61.5525 17.3064C61.564 17.2855 61.5696 17.2618 61.5688 17.2379C61.5681 17.214 61.5609 17.1908 61.548 17.1706C61.4198 16.9928 61.2461 16.8526 61.045 16.7647C61.0146 16.7571 60.9826 16.7603 60.9544 16.7738C60.9262 16.7873 60.9036 16.8102 60.8905 16.8385C60.8774 16.8668 60.8747 16.8988 60.8828 16.9289C60.8909 16.9591 60.9093 16.9854 60.9348 17.0035C61.0907 17.071 61.2262 17.178 61.3277 17.3139C61.3393 17.3322 61.3551 17.3474 61.3739 17.3582C61.3927 17.369 61.4138 17.3751 61.4355 17.376Z" fill="#EA5143"/>
    <path d="M58.1583 21.0944V23.9123C58.1583 23.9123 57.315 25.3452 56.1747 25.4455C55.0344 25.5458 54.0186 24.2108 54.0186 24.2108V21.2926L58.1583 21.0944Z" fill="#FFA681"/>
    <path d="M58.1582 21.0944V22.3457C57.394 23.1911 56.0357 23.492 54.0258 23.1959V21.2854L58.1582 21.0944Z" fill="#F97853"/>
    <path d="M61.1384 13.856C61.0941 15.0487 60.9716 16.2374 60.7719 17.4142C60.7192 17.6865 60.6593 17.9444 60.5946 18.1737C60.0005 20.2489 58.5128 23.8096 54.3468 22.3266C52.507 21.6722 51.6542 19.6304 51.2757 17.5504C51.059 16.2775 50.9659 14.9867 50.9978 13.696C51.0078 13.1851 51.1512 12.6857 51.4137 12.2468C51.6763 11.808 52.0489 11.4449 52.495 11.1932C54.9529 9.80333 57.5474 10.3216 59.2554 10.9759C59.8334 11.1973 60.3266 11.5949 60.6646 12.112C61.0027 12.6292 61.1685 13.2394 61.1384 13.856Z" fill="#FFA681"/>
    <path d="M53.8294 16.502C54.0212 16.502 54.1768 16.2582 54.1768 15.9575C54.1768 15.6568 54.0212 15.413 53.8294 15.413C53.6375 15.413 53.482 15.6568 53.482 15.9575C53.482 16.2582 53.6375 16.502 53.8294 16.502Z" fill="#18315B"/>
    <path d="M58.1175 16.502C58.3094 16.502 58.4649 16.2582 58.4649 15.9575C58.4649 15.6568 58.3094 15.413 58.1175 15.413C57.9257 15.413 57.7702 15.6568 57.7702 15.9575C57.7702 16.2582 57.9257 16.502 58.1175 16.502Z" fill="#18315B"/>
    <path d="M53.1418 14.3336C53.6252 14.1957 54.1244 14.121 54.6271 14.1115C54.6648 14.1113 54.7021 14.1194 54.7364 14.1351C54.7707 14.1508 54.8011 14.1738 54.8255 14.2025C54.85 14.2311 54.8678 14.2648 54.8778 14.3011C54.8878 14.3373 54.8897 14.3753 54.8834 14.4124C54.8724 14.4737 54.8393 14.5289 54.7904 14.5676C54.7414 14.6063 54.6799 14.6259 54.6175 14.6226C54.1983 14.6035 53.1011 14.6608 52.5836 14.8614C52.584 14.8101 52.5945 14.7595 52.6147 14.7123C52.6348 14.6652 52.6642 14.6225 52.701 14.5867C52.8203 14.4617 52.9734 14.3738 53.1418 14.3336Z" fill="#18315B"/>
    <path d="M58.7524 14.3479C58.269 14.21 57.7697 14.1354 57.2671 14.1259C57.2297 14.1264 57.193 14.1349 57.1593 14.1509C57.1256 14.167 57.0958 14.19 57.0719 14.2186C57.048 14.2472 57.0306 14.2806 57.0208 14.3165C57.0111 14.3525 57.0093 14.3901 57.0155 14.4268C57.0265 14.4881 57.0596 14.5433 57.1086 14.582C57.1576 14.6207 57.219 14.6402 57.2814 14.6369C57.7007 14.6178 58.7979 14.6751 59.3153 14.8757C59.315 14.8245 59.3044 14.7738 59.2843 14.7267C59.2641 14.6795 59.2348 14.6368 59.1979 14.6011C59.0774 14.4751 58.9225 14.3871 58.7524 14.3479Z" fill="#18315B"/>
    <path d="M56.0573 18.4411C55.9554 18.4447 55.8544 18.4208 55.765 18.3719C55.7085 18.3371 55.6613 18.2892 55.6275 18.2322C55.5937 18.1752 55.5743 18.1108 55.571 18.0447C55.5609 17.3441 55.5881 16.6434 55.6524 15.9456C55.6553 15.9101 55.6722 15.8772 55.6994 15.8541C55.7265 15.8311 55.7618 15.8197 55.7974 15.8226C55.833 15.8254 55.8659 15.8422 55.8891 15.8693C55.9122 15.8964 55.9236 15.9316 55.9207 15.9671C55.8589 16.6482 55.8317 17.3321 55.8393 18.0161C55.839 18.0407 55.845 18.0651 55.8568 18.0868C55.8685 18.1085 55.8856 18.1269 55.9064 18.1402C56.0865 18.1859 56.2769 18.1681 56.4454 18.0901C56.4748 18.0858 56.5049 18.0914 56.5308 18.1059C56.5567 18.1205 56.577 18.1433 56.5885 18.1706C56.6001 18.198 56.6021 18.2284 56.5944 18.257C56.5867 18.2857 56.5697 18.311 56.546 18.3289C56.391 18.3946 56.2255 18.4326 56.0573 18.4411Z" fill="#F97853"/>
    <path d="M54.3516 19.2866C54.4522 19.7953 54.79 20.7314 55.9279 20.7314C57.0659 20.7314 57.3869 19.8764 57.4971 19.2866H54.3516Z" fill="white"/>
    <path d="M55.9112 21.5146C55.6891 21.5063 55.4726 21.4431 55.2811 21.3307C55.2654 21.3215 55.2516 21.3092 55.2407 21.2947C55.2297 21.2801 55.2217 21.2636 55.2171 21.2459C55.2126 21.2283 55.2115 21.21 55.2141 21.1919C55.2166 21.1739 55.2227 21.1566 55.232 21.1409C55.2413 21.1252 55.2536 21.1115 55.2682 21.1006C55.2828 21.0896 55.2994 21.0816 55.3171 21.0771C55.3347 21.0725 55.3532 21.0715 55.3712 21.0741C55.3893 21.0766 55.4067 21.0827 55.4225 21.0919C55.5687 21.1764 55.7328 21.2255 55.9016 21.2352C56.0822 21.2287 56.2587 21.1796 56.4166 21.0919C56.4324 21.0828 56.4497 21.0769 56.4678 21.0745C56.4858 21.0721 56.5041 21.0733 56.5217 21.0779C56.5392 21.0826 56.5557 21.0906 56.5702 21.1017C56.5846 21.1127 56.5968 21.1264 56.6059 21.1421C56.615 21.1578 56.6209 21.1751 56.6233 21.193C56.6258 21.211 56.6246 21.2293 56.6199 21.2468C56.6153 21.2643 56.6072 21.2807 56.5961 21.2951C56.5851 21.3095 56.5713 21.3216 56.5556 21.3307C56.3588 21.443 56.1377 21.5061 55.9112 21.5146Z" fill="#F97853"/>
    <path d="M61.6798 13.641C61.6486 13.7035 61.6031 13.7576 61.5469 13.7991C61.4907 13.8407 61.4254 13.8683 61.3564 13.8798C61.3598 14.2108 61.3438 14.5418 61.3085 14.8709C61.1432 16.8053 60.6521 17.1444 60.5419 16.6668C60.4747 15.7568 60.4635 14.8437 60.5084 13.9324C60.2673 13.9166 60.0273 13.8871 59.7897 13.844L59.3393 11.967L59.1812 13.8225C58.5056 14.0613 56.9317 13.6816 56.9317 13.6816L56.4023 11.8308L56.0837 13.6172C55.0703 14.1091 53.8054 13.7819 53.8054 13.7819L53.5156 11.8714L52.8448 13.7819C52.8448 13.7819 50.6887 14.5557 50.66 13.7819C50.6456 13.333 50.9762 12.0673 51.2541 11.0858C51.3979 10.562 51.6456 10.0723 51.9826 9.64574C52.3197 9.21914 52.7391 8.86426 53.2161 8.60212C55.8968 7.16926 58.726 7.93106 59.701 8.50899C61.7637 9.73648 61.6798 13.641 61.6798 13.641Z" fill="#18315B"/>
    <path d="M51.8482 9.73886C51.8482 9.73886 50.0707 11.8476 49.4837 15.6136C48.8968 19.3797 48.0895 22.1642 50.3677 23.4084C52.8328 24.7553 52.6196 21.9946 52.5837 21.2448C52.5477 20.4949 50.4492 18.4411 51.8482 12.6619C52.301 10.8016 51.8482 9.73886 51.8482 9.73886Z" fill="#18315B"/>
    <path d="M51.4338 17.5217C51.4338 17.5504 51.4338 17.6984 51.4481 17.9325C51.4481 18.0781 51.4625 18.2549 51.4769 18.4555C51.5607 19.7235 51.8075 21.9158 52.5358 22.6753C52.8232 22.9762 53.3766 23.1266 54.0282 23.1887V22.1976C53.3472 21.8597 52.7783 21.3332 52.3896 20.6812C51.9424 19.8064 51.6368 18.8666 51.4841 17.8966L51.4338 17.5217Z" fill="#000B29"/>
    <path d="M60.8557 19.0692C61.029 19.0692 61.1695 18.9292 61.1695 18.7564C61.1695 18.5836 61.029 18.4435 60.8557 18.4435C60.6824 18.4435 60.5419 18.5836 60.5419 18.7564C60.5419 18.9292 60.6824 19.0692 60.8557 19.0692Z" fill="white"/>
    <path d="M67.5826 42.3796C66.6914 44.923 62.7003 44.7367 58.1558 43.3468H58.1367L58.0936 43.3349L57.4683 43.1367L57.2096 43.0507C56.7193 42.8915 56.2266 42.7156 55.7315 42.5229C54.0947 41.8993 52.4915 41.1914 50.9283 40.4023V40.376L51.393 39.1819L51.5511 38.7736C51.5511 38.7736 59.9765 39.6882 64.2143 38.8046L64.4251 38.7592C64.4142 38.6653 64.3982 38.572 64.3772 38.4798C62.1326 30.8618 64.5881 29.405 65.4097 28.3375C65.4169 28.3208 69.2643 37.5795 67.5826 42.3796Z" fill="#009CF8"/>
    <path d="M66.2075 40.0201C66.1827 40.0315 66.1557 40.0372 66.1284 40.0368C66.095 40.0367 66.0622 40.0272 66.0338 40.0095C66.0055 39.9917 65.9827 39.9665 65.9679 39.9365C65.6469 39.2822 64.5569 38.8905 64.2215 38.7854L64.4323 38.7401C64.4156 38.6469 64.3988 38.5538 64.3844 38.4607C64.8109 38.6016 65.9224 39.029 66.3009 39.7813C66.3108 39.803 66.3162 39.8265 66.3169 39.8504C66.3175 39.8743 66.3134 39.8981 66.3047 39.9203C66.296 39.9426 66.2829 39.9629 66.2662 39.98C66.2495 39.9971 66.2295 40.0108 66.2075 40.0201Z" fill="#006BDE"/>
    <path d="M54.4067 39.7025C52.6867 39.7025 51.2924 39.6046 51.1702 39.595C51.1226 39.5915 51.0783 39.5693 51.0471 39.5333C51.0158 39.4972 51.0003 39.4503 51.0037 39.4028C51.0072 39.3553 51.0295 39.3111 51.0657 39.28C51.1019 39.2488 51.1489 39.2333 51.1966 39.2368C51.2613 39.2368 57.5809 39.6881 60.0723 38.6803C60.116 38.665 60.1639 38.667 60.2061 38.686C60.2483 38.705 60.2815 38.7395 60.2988 38.7823C60.3161 38.8251 60.3161 38.8729 60.2989 38.9158C60.2818 38.9586 60.2486 38.9932 60.2065 39.0123C58.8266 39.5687 56.3999 39.7025 54.4067 39.7025Z" fill="#006BDE"/>
    <path d="M57.4683 43.1294C58.9057 42.733 60.2208 42.3461 60.9779 42.1049C62.0295 41.7682 62.8944 40.7102 63.2944 39.8099C63.3157 39.7701 63.3513 39.7397 63.3941 39.7249C63.4368 39.7101 63.4836 39.7119 63.5251 39.73C63.5666 39.7481 63.5997 39.7812 63.6177 39.8226C63.6358 39.8639 63.6376 39.9106 63.6226 39.9532C63.1962 40.9276 62.2451 42.0762 61.0881 42.4464C60.5395 42.6231 59.701 42.8715 58.7308 43.1485C58.3173 43.2663 57.878 43.2596 57.4683 43.1294Z" fill="#006BDE"/>
    <path d="M61.354 41.8971C48.3315 46.2698 44.326 43.4088 44.326 43.4088C43.4492 35.5066 46.6809 28.3995 46.6809 28.3995C47.6391 29.9685 48.7148 32.6981 48.7148 32.6981L48.9998 38.7568L48.9783 38.9239V39.0028L48.9256 39.4159L49.0094 39.4326C52.9478 40.2613 60.1514 39.3347 60.1514 39.3347L61.354 41.8971Z" fill="#009CF8"/>
    <path d="M48.9974 39.4517C48.268 40.0577 47.6084 40.7425 47.0306 41.4936C47.0163 41.5124 46.9984 41.5282 46.978 41.5402C46.9575 41.5521 46.9349 41.5599 46.9114 41.5631C46.888 41.5663 46.8641 41.5649 46.8412 41.5589C46.8183 41.5529 46.7968 41.5425 46.7779 41.5282C46.759 41.514 46.7431 41.4961 46.7312 41.4757C46.7192 41.4553 46.7114 41.4328 46.7082 41.4094C46.7049 41.386 46.7064 41.3622 46.7124 41.3394C46.7184 41.3165 46.7288 41.2951 46.7431 41.2763C47.3897 40.4341 48.1362 39.6732 48.9663 39.0099L48.9136 39.4231L48.9974 39.4517Z" fill="#006BDE"/>
    <path d="M60.1298 39.3538C60.1298 39.3538 61.5672 36.0893 63.764 36.3806L64.4419 38.7401C63.2441 39.2487 63.0669 41.2977 61.3636 41.8971L60.1298 39.3538Z" fill="#FFA681"/>
    <path d="M51.5608 38.7544C51.2376 38.0882 50.7755 37.4983 50.2054 37.0243C49.6353 36.5503 48.9703 36.2031 48.2548 36.0057C45.8592 35.3872 44.3332 36.512 44.1823 36.9371C44.0313 37.3622 45.0854 36.9562 45.0854 36.9562C44.6356 37.1051 44.2508 37.4036 43.9954 37.8016C43.5977 38.4511 44.9536 37.7514 44.9536 37.7514C44.9536 37.7514 43.9738 38.1789 43.8493 38.5753C43.7247 38.9717 45.0159 38.3007 45.2603 38.315C45.2603 38.315 44.108 38.7711 44.1152 39.1819C44.1224 39.5926 45.44 38.924 46.4246 38.9765C47.2662 39.0614 48.0994 39.2148 48.916 39.435C49.6652 39.5868 50.424 39.6865 51.187 39.7335L51.5608 38.7544Z" fill="#FFA681"/>
</svg>
