<svg width="142" height="200" viewBox="0 0 142 200" fill="none" xmlns="http://www.w3.org/2000/svg">
<path d="M140.5 56H85.5V1M140.5 56V199H1V1H85.5M140.5 56L85.5 1" stroke="#CACCCF" stroke-width="2"/>
<rect x="17" y="22" width="45" height="45" stroke="#CACCCF" stroke-width="2"/>
<rect x="79" y="112" width="45" height="45" stroke="#CACCCF" stroke-width="2"/>
<path d="M140.5 56H85.5V1M140.5 56V199H1V1H85.5M140.5 56L85.5 1" stroke="#CACCCF" stroke-width="2"/>
<path d="M17 85L124 85" stroke="#CACCCF" stroke-width="2"/>
<path d="M17 77L116 77" stroke="#CACCCF" stroke-width="2"/>
<path d="M17 93L107 93" stroke="#CACCCF" stroke-width="2"/>
<path d="M17 101L124 101" stroke="#CACCCF" stroke-width="2"/>
<path d="M17 132L69 132" stroke="#CACCCF" stroke-width="2"/>
<path d="M17 157L45.5 157" stroke="#CACCCF" stroke-width="2"/>
<path d="M17 140H60" stroke="#CACCCF" stroke-width="2"/>
<path d="M17 165H70.5" stroke="#CACCCF" stroke-width="2"/>
<path d="M17 148H70.5" stroke="#CACCCF" stroke-width="2"/>
<path d="M17 173L125.5 173" stroke="#CACCCF" stroke-width="2"/>
<rect x="19" y="115" width="51" height="6" stroke="#CACCCF" stroke-width="2"/>
</svg>
