<svg id="Слой_1" data-name="Слой 1" xmlns="http://www.w3.org/2000/svg" viewBox="0 0 113.9 48.75"><defs><style>.cls-1{fill:#dd0c29;}.cls-2{fill:#364751;}</style></defs><title>cto_CONGRESS_WEB_ru</title><path class="cls-1" d="M11,32.87h0a1.52,1.52,0,0,0,1.5-1.5,1.53,1.53,0,0,0-1.5-1.5,1.39,1.39,0,0,0-1,.44,1.49,1.49,0,0,0-.45,1.06A1.52,1.52,0,0,0,11,32.87h0Z" transform="translate(-5.87 -3.23)"/><path class="cls-1" d="M19,45.87h0a1.52,1.52,0,0,0-1.5,1.49,1.5,1.5,0,0,0,1.5,1.5h0a1.49,1.49,0,0,0,0-3h0Z" transform="translate(-5.87 -3.23)"/><path class="cls-1" d="M26.18,37.89h0a1.52,1.52,0,0,0-1.5,1.48,1.47,1.47,0,0,0,.43,1.05,1.51,1.51,0,0,0,1.06.46h0a1.52,1.52,0,0,0,1.5-1.48,1.47,1.47,0,0,0-.43-1.05,1.49,1.49,0,0,0-1.06-.46h0Z" transform="translate(-5.87 -3.23)"/><path class="cls-1" d="M22.61,40.08h0a1.5,1.5,0,0,0-1.47,1.51h0a1.5,1.5,0,0,0,.46,1.06,1.46,1.46,0,0,0,1,.42h0a1.51,1.51,0,0,0,1.48-1.52,1.49,1.49,0,0,0-.46-1,1.48,1.48,0,0,0-1-.43h0Z" transform="translate(-5.87 -3.23)"/><path class="cls-1" d="M15.47,18.26A1.52,1.52,0,0,0,17,19.74h0A1.5,1.5,0,0,0,18,19.28a1.47,1.47,0,0,0,.43-1.06h0a1.5,1.5,0,0,0-3,0h0Z" transform="translate(-5.87 -3.23)"/><path class="cls-1" d="M20,18.28a1.5,1.5,0,0,0-1.05.46,1.49,1.49,0,0,0,1.06,2.53h0a1.5,1.5,0,0,0,1.06-.46,1.46,1.46,0,0,0,.42-1A1.5,1.5,0,0,0,20,18.28h0Z" transform="translate(-5.87 -3.23)"/><path class="cls-1" d="M15.19,20.08h0a1.51,1.51,0,0,0-1.06.46,1.47,1.47,0,0,0-.43,1.05,1.52,1.52,0,0,0,1.5,1.48h0a1.5,1.5,0,0,0,0-3h0Z" transform="translate(-5.87 -3.23)"/><path class="cls-1" d="M9.06,20.07h0a1.52,1.52,0,0,0,1.5-1.48,1.46,1.46,0,0,0-.43-1.06,1.5,1.5,0,0,0-1.05-.46,1.54,1.54,0,0,0-1.52,1.47A1.47,1.47,0,0,0,8,19.6a1.52,1.52,0,0,0,1.06.46h0Z" transform="translate(-5.87 -3.23)"/><path class="cls-1" d="M14.37,30.74h0a1.49,1.49,0,0,0,1-2.55,1.49,1.49,0,0,0-2.55,1.06,1.51,1.51,0,0,0,1.49,1.49h0Z" transform="translate(-5.87 -3.23)"/><path class="cls-1" d="M19.49,40.94h0A1.5,1.5,0,0,0,21,39.45,1.52,1.52,0,0,0,19.49,38h0a1.49,1.49,0,1,0,0,3h0Z" transform="translate(-5.87 -3.23)"/><path class="cls-1" d="M22.52,43.93h0a1.52,1.52,0,0,0-1.5,1.5,1.47,1.47,0,0,0,.44,1.05,1.49,1.49,0,0,0,1.06.44h0a1.52,1.52,0,0,0,1.5-1.5,1.52,1.52,0,0,0-1.5-1.49h0Z" transform="translate(-5.87 -3.23)"/><path class="cls-1" d="M17.49,25.69a1.48,1.48,0,0,0,0,3h0a1.48,1.48,0,0,0,0-3h0Z" transform="translate(-5.87 -3.23)"/><path class="cls-1" d="M26.14,45h0a1.48,1.48,0,0,0,0,3h0a1.48,1.48,0,0,0,0-3h0Z" transform="translate(-5.87 -3.23)"/><path class="cls-1" d="M18.06,33h0.05a1.52,1.52,0,0,0,1.49-1.45,1.46,1.46,0,0,0-.4-1.05A1.53,1.53,0,0,0,18.16,30h0a1.5,1.5,0,1,0-.1,3h0Z" transform="translate(-5.87 -3.23)"/><path class="cls-1" d="M18.47,36.65a1.46,1.46,0,0,0-.42-1A1.49,1.49,0,0,0,17,35.15h0a1.5,1.5,0,0,0-1.5,1.47,1.46,1.46,0,0,0,.43,1,1.49,1.49,0,0,0,1.06.46h0a1.5,1.5,0,0,0,1.5-1.47h0Z" transform="translate(-5.87 -3.23)"/><path class="cls-1" d="M19.61,23.23a1.52,1.52,0,0,0-1.48-1.51h0a1.52,1.52,0,0,0-1.49,1.48,1.47,1.47,0,0,0,.42,1,1.52,1.52,0,0,0,1.06.47h0a1.52,1.52,0,0,0,1.49-1.48h0Z" transform="translate(-5.87 -3.23)"/><path class="cls-1" d="M26.21,17.61h0a1.49,1.49,0,0,0,0,3h0a1.49,1.49,0,0,0,0-3h0Z" transform="translate(-5.87 -3.23)"/><path class="cls-1" d="M7.36,27.15h0a1.52,1.52,0,0,0,1.49-1.48,1.52,1.52,0,0,0-1.49-1.5,1.46,1.46,0,0,0-1.06.43,1.48,1.48,0,0,0-.45,1.05,1.52,1.52,0,0,0,1.49,1.5h0Z" transform="translate(-5.87 -3.23)"/><path class="cls-1" d="M9.79,28.28a1.48,1.48,0,0,0,1,.44h0a1.5,1.5,0,0,0,0-3,1.46,1.46,0,0,0-1.05.44,1.48,1.48,0,0,0,0,2.11h0Z" transform="translate(-5.87 -3.23)"/><path class="cls-1" d="M19.17,9.74a1.5,1.5,0,0,0-1.48,1.51,1.5,1.5,0,0,0,1.49,1.48h0a1.49,1.49,0,0,0,1.05-.46,1.47,1.47,0,0,0,0-2.1,1.49,1.49,0,0,0-1.06-.43h0Z" transform="translate(-5.87 -3.23)"/><path class="cls-1" d="M29.88,45.39h0a1.47,1.47,0,0,0-1,.44,1.5,1.5,0,0,0,0,2.12,1.47,1.47,0,0,0,1,.44h0A1.47,1.47,0,0,0,30.93,48a1.5,1.5,0,0,0-1.05-2.56h0Z" transform="translate(-5.87 -3.23)"/><path class="cls-1" d="M16.26,42.74h0a1.5,1.5,0,0,0,1.49-1.49,1.51,1.51,0,0,0-1.49-1.5h0a1.5,1.5,0,0,0,0,3h0Z" transform="translate(-5.87 -3.23)"/><path class="cls-1" d="M7.37,30.63a1.51,1.51,0,0,0,1.49-1.49,1.45,1.45,0,0,0-.43-1,1.5,1.5,0,0,0-1.07-.44h0a1.49,1.49,0,0,0-1.06.44,1.49,1.49,0,0,0,1.06,2.54h0Z" transform="translate(-5.87 -3.23)"/><path class="cls-1" d="M19,9h0a1.49,1.49,0,0,0,1.06-.45,1.47,1.47,0,0,0,.43-1.05,1.5,1.5,0,0,0-2.57-1,1.47,1.47,0,0,0-.43,1.05A1.5,1.5,0,0,0,19,9h0Z" transform="translate(-5.87 -3.23)"/><path class="cls-1" d="M19.19,42.16h0a1.49,1.49,0,1,0,0,3h0a1.51,1.51,0,0,0,1.5-1.48,1.47,1.47,0,0,0-.43-1,1.49,1.49,0,0,0-1.06-.44h0Z" transform="translate(-5.87 -3.23)"/><path class="cls-1" d="M12.32,39.68a1.47,1.47,0,0,0-1.46-1.51h0a1.47,1.47,0,0,0-1.49,1.46,1.48,1.48,0,0,0,1.47,1.51h0a1.47,1.47,0,0,0,1.49-1.46h0Z" transform="translate(-5.87 -3.23)"/><path class="cls-1" d="M29.9,48.66a1.5,1.5,0,0,0-1.51,1.48,1.5,1.5,0,0,0,1.47,1.52h0a1.46,1.46,0,0,0,1-.42,1.5,1.5,0,0,0-1-2.58h0Z" transform="translate(-5.87 -3.23)"/><path class="cls-1" d="M19.49,13.94h0a1.49,1.49,0,0,0-1.06.45,1.47,1.47,0,0,0-.43,1,1.5,1.5,0,0,0,1.5,1.47h0a1.49,1.49,0,0,0,1.06-.44,1.47,1.47,0,0,0,.43-1,1.5,1.5,0,0,0-1.5-1.48h0Z" transform="translate(-5.87 -3.23)"/><path class="cls-1" d="M21.56,35.12a1.46,1.46,0,0,0-.43-1,1.5,1.5,0,0,0-2.57,1,1.47,1.47,0,0,0,.42,1,1.49,1.49,0,0,0,1.06.45h0a1.5,1.5,0,0,0,1.5-1.47h0Z" transform="translate(-5.87 -3.23)"/><path class="cls-1" d="M10.58,36.29a1.48,1.48,0,0,0-1.5-1.47h0A1.49,1.49,0,0,0,8,35.27a1.46,1.46,0,0,0-.42,1,1.5,1.5,0,0,0,1.5,1.48h0a1.49,1.49,0,0,0,1.06-.45,1.47,1.47,0,0,0,.43-1h0Z" transform="translate(-5.87 -3.23)"/><path class="cls-1" d="M22.51,8h0a1.5,1.5,0,0,0-1.07.45,1.46,1.46,0,0,0-.42,1,1.5,1.5,0,0,0,1.5,1.48h0a1.49,1.49,0,0,0,1.06-.44,1.48,1.48,0,0,0,0-2.09A1.49,1.49,0,0,0,22.51,8h0Z" transform="translate(-5.87 -3.23)"/><path class="cls-1" d="M26.24,34.28h0a1.49,1.49,0,0,0-1.49,1.47,1.49,1.49,0,0,0,1.46,1.52h0A1.5,1.5,0,0,0,27.7,35.8a1.5,1.5,0,0,0-1.46-1.52h0Z" transform="translate(-5.87 -3.23)"/><path class="cls-1" d="M22.94,24a1.5,1.5,0,0,0-1.5-1.47h0a1.5,1.5,0,0,0-1.06.45,1.47,1.47,0,0,0-.42,1,1.5,1.5,0,0,0,1.5,1.47h0a1.48,1.48,0,0,0,1.06-.45A1.47,1.47,0,0,0,22.94,24h0Z" transform="translate(-5.87 -3.23)"/><path class="cls-1" d="M29.88,35.08h0a1.48,1.48,0,0,0,0,3h0a1.48,1.48,0,0,0,0-3h0Z" transform="translate(-5.87 -3.23)"/><path class="cls-1" d="M30.94,6.93a1.49,1.49,0,0,0-1.06-.42h0a1.48,1.48,0,1,0,0,3h0a1.49,1.49,0,0,0,1-2.54h0Z" transform="translate(-5.87 -3.23)"/><path class="cls-1" d="M9.47,23.52A1.48,1.48,0,0,0,11,25h0A1.49,1.49,0,0,0,12,24.53a1.47,1.47,0,0,0,.42-1.05,1.5,1.5,0,0,0-2.58-1,1.46,1.46,0,0,0-.42,1.05h0Z" transform="translate(-5.87 -3.23)"/><path class="cls-1" d="M26.13,6.86h0a1.5,1.5,0,0,0-1,2.56,1.47,1.47,0,0,0,1,.43h0a1.5,1.5,0,0,0,1-2.56,1.47,1.47,0,0,0-1-.43h0Z" transform="translate(-5.87 -3.23)"/><path class="cls-1" d="M16.27,12.14h0a1.48,1.48,0,1,0,0,3h0a1.48,1.48,0,0,0,0-3h0Z" transform="translate(-5.87 -3.23)"/><path class="cls-1" d="M29.86,38.47A1.5,1.5,0,0,0,28.39,40a1.5,1.5,0,0,0,1.48,1.47h0a1.5,1.5,0,0,0,1-2.57,1.52,1.52,0,0,0-1.06-.42h0Z" transform="translate(-5.87 -3.23)"/><path class="cls-1" d="M29.88,19.81h0a1.47,1.47,0,0,0,1-.43,1.5,1.5,0,0,0-1-2.56h0a1.47,1.47,0,0,0-1,.43,1.5,1.5,0,0,0,1,2.56h0Z" transform="translate(-5.87 -3.23)"/><path class="cls-1" d="M12.84,25.19a1.47,1.47,0,0,0,1.47,1.51h0a1.49,1.49,0,1,0-1.49-1.51h0Z" transform="translate(-5.87 -3.23)"/><path class="cls-1" d="M26.14,14a1.49,1.49,0,0,0-1.06.45,1.46,1.46,0,0,0-.42,1.05A1.5,1.5,0,0,0,26.16,17h0a1.5,1.5,0,0,0,1.48-1.51A1.5,1.5,0,0,0,26.14,14h0Z" transform="translate(-5.87 -3.23)"/><path class="cls-1" d="M20.89,28.69h0.06a1.47,1.47,0,0,0,1-.4,1.49,1.49,0,1,0-1.06.39h0Z" transform="translate(-5.87 -3.23)"/><path class="cls-1" d="M29.87,6.2h0a1.49,1.49,0,0,0,0-3h0a1.49,1.49,0,0,0,0,3h0Z" transform="translate(-5.87 -3.23)"/><path class="cls-1" d="M7.88,23.67h0A1.49,1.49,0,0,0,9.4,22.21a1.49,1.49,0,0,0-3-.07,1.5,1.5,0,0,0,1.46,1.53h0Z" transform="translate(-5.87 -3.23)"/><path class="cls-1" d="M10.82,16.72h0a1.47,1.47,0,0,0,1-.43,1.48,1.48,0,0,0,.45-1.06,1.5,1.5,0,0,0-1.48-1.51,1.54,1.54,0,0,0-1.05.43,1.5,1.5,0,0,0,1,2.56h0Z" transform="translate(-5.87 -3.23)"/><path class="cls-1" d="M11,18.84a1.5,1.5,0,0,0,1.07,2.53h0a1.5,1.5,0,0,0,1.48-1.51,1.48,1.48,0,0,0-.45-1.05,1.5,1.5,0,0,0-2.12,0h0Z" transform="translate(-5.87 -3.23)"/><path class="cls-1" d="M13.14,41.19h0a1.47,1.47,0,0,0-1.49,1.46,1.49,1.49,0,0,0,1.47,1.51h0a1.49,1.49,0,0,0,0-3h0Z" transform="translate(-5.87 -3.23)"/><path class="cls-1" d="M15.19,34.79h0a1.49,1.49,0,0,0,1.06-.46,1.47,1.47,0,0,0,.42-1.05,1.51,1.51,0,0,0-1.52-1.46,1.48,1.48,0,0,0-1.06.46,1.46,1.46,0,0,0-.42,1.05,1.48,1.48,0,0,0,1.5,1.46h0Z" transform="translate(-5.87 -3.23)"/><path class="cls-1" d="M15.89,43.77a1.55,1.55,0,0,0-1.05.42,1.5,1.5,0,0,0,1,2.57h0a1.47,1.47,0,0,0,1-.42,1.49,1.49,0,0,0-1-2.57h0Z" transform="translate(-5.87 -3.23)"/><path class="cls-1" d="M15.86,11.1h0a1.49,1.49,0,0,0,1-2.55,1.5,1.5,0,0,0-1.07-.42,1.47,1.47,0,0,0-1.47,1.46,1.48,1.48,0,0,0,1.48,1.51h0Z" transform="translate(-5.87 -3.23)"/><path class="cls-1" d="M13.11,13.7h0a1.5,1.5,0,0,0,1-2.57,1.46,1.46,0,0,0-1.06-.42,1.5,1.5,0,0,0-1.47,1.52,1.48,1.48,0,0,0,.46,1.05,1.47,1.47,0,0,0,1,.42h0Z" transform="translate(-5.87 -3.23)"/><path class="cls-1" d="M22.8,30.41a1.47,1.47,0,0,0-.44-1,1.49,1.49,0,0,0-1.05-.43h0a1.49,1.49,0,0,0,0,3h0a1.5,1.5,0,0,0,1.48-1.5h0Z" transform="translate(-5.87 -3.23)"/><path class="cls-1" d="M22.46,7.45h0A1.47,1.47,0,0,0,24,6h0a1.49,1.49,0,0,0-1.49-1.48h0a1.49,1.49,0,1,0,0,3h0Z" transform="translate(-5.87 -3.23)"/><path class="cls-1" d="M22.79,36.23a1.48,1.48,0,1,0,1.05.43,1.47,1.47,0,0,0-1.05-.43h0Z" transform="translate(-5.87 -3.23)"/><path class="cls-1" d="M22.8,15.66a1.46,1.46,0,0,0-1.06.42,1.49,1.49,0,0,0-.45,1.07,1.48,1.48,0,0,0,1.49,1.5h0a1.49,1.49,0,0,0,0-3h0Z" transform="translate(-5.87 -3.23)"/><path class="cls-1" d="M26.13,48.36h0a1.49,1.49,0,0,0,0,3h0a1.5,1.5,0,0,0,1.49-1.48,1.48,1.48,0,0,0-1.48-1.5h0Z" transform="translate(-5.87 -3.23)"/><path class="cls-1" d="M26.14,41.43h0a1.49,1.49,0,0,0,0,3h0a1.49,1.49,0,0,0,0-3h0Z" transform="translate(-5.87 -3.23)"/><path class="cls-1" d="M26.14,10.48h0a1.49,1.49,0,0,0,0,3h0a1.49,1.49,0,1,0,0-3h0Z" transform="translate(-5.87 -3.23)"/><path class="cls-1" d="M26.12,6.52h0a1.49,1.49,0,0,0,1.06-.44,1.49,1.49,0,0,0-1-2.54A1.5,1.5,0,0,0,25.07,4a1.5,1.5,0,0,0,1,2.55h0Z" transform="translate(-5.87 -3.23)"/><path class="cls-1" d="M22.62,11.81h0a1.48,1.48,0,1,0,0,3h0a1.5,1.5,0,0,0,1.5-1.47,1.47,1.47,0,0,0-.42-1,1.49,1.49,0,0,0-1.06-.45h0Z" transform="translate(-5.87 -3.23)"/><path class="cls-1" d="M29.89,41.87h0a1.49,1.49,0,1,0,0,3h0a1.49,1.49,0,0,0,0-3h0Z" transform="translate(-5.87 -3.23)"/><path class="cls-1" d="M29.88,16.4h0a1.49,1.49,0,0,0,1-2.55,1.49,1.49,0,0,0-1.05-.42h0a1.48,1.48,0,1,0,0,3h0Z" transform="translate(-5.87 -3.23)"/><path class="cls-1" d="M22.47,47.42h0a1.49,1.49,0,0,0,0,3h0a1.49,1.49,0,0,0,0-3h0Z" transform="translate(-5.87 -3.23)"/><path class="cls-1" d="M13.85,15.07a1.49,1.49,0,0,0-1.06.44,1.47,1.47,0,0,0-.42,1.05A1.49,1.49,0,0,0,13.86,18h0a1.48,1.48,0,0,0,0-3h0Z" transform="translate(-5.87 -3.23)"/><path class="cls-1" d="M29.88,10h0a1.49,1.49,0,1,0,0,3h0a1.49,1.49,0,0,0,0-3h0Z" transform="translate(-5.87 -3.23)"/><path class="cls-1" d="M13.86,39.82h0a1.5,1.5,0,0,0,1.48-1.5,1.48,1.48,0,0,0-.44-1.05,1.53,1.53,0,0,0-1.06-.43,1.49,1.49,0,0,0-1,2.55,1.48,1.48,0,0,0,1,.43h0Z" transform="translate(-5.87 -3.23)"/><path class="cls-1" d="M23.16,35h0a1.47,1.47,0,0,0,1.49-1.47,1.49,1.49,0,0,0-1.47-1.51h0a1.49,1.49,0,0,0,0,3h0Z" transform="translate(-5.87 -3.23)"/><path class="cls-1" d="M12.05,36.49h0A1.49,1.49,0,0,0,13.56,35,1.47,1.47,0,0,0,13.14,34a1.49,1.49,0,0,0-1.06-.44h0a1.49,1.49,0,1,0,0,3h0Z" transform="translate(-5.87 -3.23)"/><path class="cls-1" d="M7.93,34.2a1.5,1.5,0,1,0-1.06-.43,1.48,1.48,0,0,0,1.06.43h0Z" transform="translate(-5.87 -3.23)"/><path class="cls-1" d="M24.23,20.26a1.46,1.46,0,0,0-1.05-.44,1.5,1.5,0,0,0-1.48,1.5,1.48,1.48,0,0,0,1.49,1.48h0a1.48,1.48,0,0,0,1-2.54h0Z" transform="translate(-5.87 -3.23)"/><path class="cls-2" d="M37.33,51.86h0.92V49.7l1.47,2.16H40.8L39,49.17,40.63,47H39.54l-1.29,1.68V47H37.33v4.86h0Zm5-4.64a2.48,2.48,0,0,0-.91.93,2.64,2.64,0,0,0,.38,3.08,2.45,2.45,0,0,0,3.52,0,2.49,2.49,0,0,0,.72-1.8,2.51,2.51,0,0,0-.73-1.82,2.34,2.34,0,0,0-1.74-.75,2.41,2.41,0,0,0-1.25.34h0Zm2.35,1a1.74,1.74,0,0,1,0,2.35,1.46,1.46,0,0,1-1.1.48,1.54,1.54,0,0,1-1-.37,1.57,1.57,0,0,1-.57-1.28,1.65,1.65,0,0,1,.45-1.19,1.54,1.54,0,0,1,2.22,0h0Zm2.15,3.6H47.8V49.73h1.59v2.13H50.3V47H49.39v1.83H47.8V47H46.88v4.86h0Zm4.45,0h0.9v-4h1.46V47H51.32v4.86h0Zm3,0h0.91V49.8a4,4,0,0,0,1-.08,1.29,1.29,0,0,0,1-1.32,1.49,1.49,0,0,0-.2-0.79,1.15,1.15,0,0,0-.54-0.48A3.11,3.11,0,0,0,55.29,47h-1v4.86h0Zm0.91-4h0.26a1.19,1.19,0,0,1,.58.1,0.44,0.44,0,0,1,.21.41,0.49,0.49,0,0,1-.08.28,0.42,0.42,0,0,1-.21.16,1.52,1.52,0,0,1-.47,0H55.23v-1h0Zm2.75,4h2.6V51h-1.7V49.67h1.7V48.78h-1.7V47.9h1.7V47H58v4.86h0Zm6.82-4.73a2.66,2.66,0,0,0-1.14-.25,2.56,2.56,0,0,0-1.29.34,2.41,2.41,0,0,0-.92.91,2.56,2.56,0,0,0-.32,1.29,2.52,2.52,0,0,0,.71,1.84,2.44,2.44,0,0,0,1.82.72,2.68,2.68,0,0,0,1.07-.2,3.38,3.38,0,0,0,1-.73l-0.61-.65a2.59,2.59,0,0,1-.72.55,1.71,1.71,0,0,1-.72.15,1.68,1.68,0,0,1-.84-0.22,1.5,1.5,0,0,1-.59-0.59A1.76,1.76,0,0,1,62,49.42a1.61,1.61,0,0,1,.47-1.17,1.55,1.55,0,0,1,1.15-.48,2,2,0,0,1,1.46.7l0.63-.62a2.72,2.72,0,0,0-.94-0.72h0Zm5.11,0a2.66,2.66,0,0,0-1.14-.25,2.56,2.56,0,0,0-1.29.34,2.41,2.41,0,0,0-.92.91,2.56,2.56,0,0,0-.32,1.29,2.52,2.52,0,0,0,.71,1.84,2.44,2.44,0,0,0,1.82.72,2.68,2.68,0,0,0,1.07-.2,3.38,3.38,0,0,0,1-.73l-0.61-.65a2.59,2.59,0,0,1-.72.55,1.71,1.71,0,0,1-.72.15,1.68,1.68,0,0,1-.84-0.22,1.51,1.51,0,0,1-.59-0.59,1.76,1.76,0,0,1-.21-0.86,1.61,1.61,0,0,1,.47-1.17,1.55,1.55,0,0,1,1.15-.48,2,2,0,0,1,1.46.7l0.63-.62a2.72,2.72,0,0,0-.94-0.72h0Zm1.69,3.36h1.65V49.65H71.6v0.84h0Zm3.7-3.27a2.47,2.47,0,0,0-.91.93,2.64,2.64,0,0,0,.38,3.08,2.45,2.45,0,0,0,3.52,0,2.49,2.49,0,0,0,.72-1.8,2.51,2.51,0,0,0-.73-1.82,2.34,2.34,0,0,0-1.74-.75,2.41,2.41,0,0,0-1.25.34h0Zm2.35,1a1.74,1.74,0,0,1,0,2.35,1.46,1.46,0,0,1-1.1.48,1.54,1.54,0,0,1-1-.37A1.57,1.57,0,0,1,75,49.45a1.65,1.65,0,0,1,.45-1.19,1.54,1.54,0,0,1,2.22,0h0Zm2.15,3.6H80.7V49.8a4,4,0,0,0,1-.08,1.29,1.29,0,0,0,1-1.32,1.49,1.49,0,0,0-.2-0.79,1.15,1.15,0,0,0-.54-0.48A3.11,3.11,0,0,0,80.76,47h-1v4.86h0Zm0.91-4H81a1.19,1.19,0,0,1,.58.1,0.44,0.44,0,0,1,.21.41,0.49,0.49,0,0,1-.08.28,0.42,0.42,0,0,1-.21.16,1.52,1.52,0,0,1-.47,0H80.7v-1h0Zm2.74,4h0.9v-4h1.46V47H83.44v4.86h0Zm2.62,0H87l0.39-1h1.94l0.37,1h0.94L88.82,47H87.9l-1.84,4.86h0ZM89,50H87.73l0.64-1.67L89,50h0Zm2.28,1.9h0.92V49.73H93.8v2.13h0.92V47H93.8v1.83H92.21V47H91.29v4.86h0ZM98.44,47l-1.8,3.14V47H95.73v4.86h0.79l1.78-3v3H99.2V47H98.44Zm1.32,4.11a2.26,2.26,0,0,0,.76.71,1.84,1.84,0,0,0,.79.16,1.62,1.62,0,0,0,1.15-.41,1.41,1.41,0,0,0,.45-1.09,1.32,1.32,0,0,0-.84-1.3,1.24,1.24,0,0,0,.5-0.53,1.5,1.5,0,0,0,.09-0.51,1.18,1.18,0,0,0-.4-0.94,1.44,1.44,0,0,0-1-.35,2.07,2.07,0,0,0-.53.08,2,2,0,0,0-.72.47L100.56,48a0.93,0.93,0,0,1,.63-0.31,0.57,0.57,0,0,1,.41.15,0.55,0.55,0,0,1,.16.41,0.58,0.58,0,0,1-.19.45,0.79,0.79,0,0,1-.55.17h-0.19v0.83H101a1.15,1.15,0,0,1,.8.2,0.69,0.69,0,0,1,.19.5,0.64,0.64,0,0,1-.2.49,0.73,0.73,0,0,1-.52.18,1,1,0,0,1-.84-0.51l-0.69.52h0Zm3.56,0.75h0.94l0.39-1h1.94l0.37,1h0.94L106.08,47h-0.92l-1.84,4.86h0Zm2.94-1.9H105l0.64-1.67L106.26,50h0Zm1.82-2h0.85v3.95h0.92V47.91h0.87V47h-2.63v0.91h0Zm4.19-.69a2.48,2.48,0,0,0-.91.93,2.64,2.64,0,0,0,.38,3.08,2.45,2.45,0,0,0,3.52,0,2.49,2.49,0,0,0,.72-1.8,2.51,2.51,0,0,0-.73-1.82,2.34,2.34,0,0,0-1.74-.75,2.4,2.4,0,0,0-1.25.34h0Zm2.35,1a1.74,1.74,0,0,1,0,2.35,1.46,1.46,0,0,1-1.1.48,1.53,1.53,0,0,1-1-.37,1.57,1.57,0,0,1-.57-1.28,1.65,1.65,0,0,1,.45-1.19,1.54,1.54,0,0,1,2.22,0h0Zm2.15,3.6h0.91V49.8a4,4,0,0,0,1-.08,1.29,1.29,0,0,0,1-1.32,1.49,1.49,0,0,0-.2-0.79,1.15,1.15,0,0,0-.54-0.48,3.11,3.11,0,0,0-1.13-.15h-1v4.86h0Zm0.91-4h0.26a1.19,1.19,0,0,1,.58.1,0.44,0.44,0,0,1,.21.41,0.49,0.49,0,0,1-.08.28,0.42,0.42,0,0,1-.21.16,1.52,1.52,0,0,1-.47,0h-0.29v-1h0Z" transform="translate(-5.87 -3.23)"/><path class="cls-2" d="M37.35,43.53h1v-4H40v4h1V38.67h-3.6v4.86h0Zm5,0h1V41.47a4.41,4.41,0,0,0,1-.08,1.42,1.42,0,0,0,.74-0.47,1.3,1.3,0,0,0,.27-0.85,1.44,1.44,0,0,0-.21-0.79,1.2,1.2,0,0,0-.57-0.48,3.42,3.42,0,0,0-1.18-.15h-1v4.86h0Zm1-4H43.6a1.31,1.31,0,0,1,.61.1,0.44,0.44,0,0,1,.22.41,0.47,0.47,0,0,1-.08.28,0.44,0.44,0,0,1-.22.16,1.68,1.68,0,0,1-.5,0h-0.3v-1h0Zm4.29-.68a2.53,2.53,0,0,0-1,.93,2.54,2.54,0,0,0,.4,3.08,2.67,2.67,0,0,0,3.7,0,2.42,2.42,0,0,0,.75-1.8,2.45,2.45,0,0,0-.76-1.82,2.52,2.52,0,0,0-1.83-.75,2.63,2.63,0,0,0-1.31.34h0Zm2.47,1a1.68,1.68,0,0,1,0,2.35,1.58,1.58,0,0,1-1.15.48,1.66,1.66,0,0,1-1.06-.37,1.54,1.54,0,0,1-.6-1.28,1.61,1.61,0,0,1,1.64-1.66,1.59,1.59,0,0,1,1.17.48h0Zm4.16-1.26V39.3a3.18,3.18,0,0,0-1.16.16,1.23,1.23,0,0,0-.59.49,1.52,1.52,0,0,0-.21.82,1.38,1.38,0,0,0,.26.86,1.28,1.28,0,0,0,.66.46,3.65,3.65,0,0,0,1,.12v1.32h1V42.21a5,5,0,0,0,.89-0.06,1.53,1.53,0,0,0,.57-0.24,1.22,1.22,0,0,0,.41-0.47,1.56,1.56,0,0,0,.14-0.7q0-1.44-1.8-1.44H55.2V38.67h-1Zm0,2.72H54a1.07,1.07,0,0,1-.59-0.14,0.55,0.55,0,0,1-.2-0.49,0.6,0.6,0,0,1,.17-0.46A1,1,0,0,1,54,40.15h0.22v1.24h0Zm1.24-1.24a1,1,0,0,1,.67.16,0.59,0.59,0,0,1,.17.45,0.66,0.66,0,0,1-.16.46,0.86,0.86,0,0,1-.64.17H55.2V40.15h0.28Zm2.75,3.38H61V42.62H59.18V41.34H61V40.45H59.18V39.57H61V38.67H58.23v4.86h0Zm7.51-4.73a2.92,2.92,0,0,0-1.19-.25,2.8,2.8,0,0,0-1.36.34,2.4,2.4,0,0,0-1.31,2.2,2.45,2.45,0,0,0,.74,1.84,2.64,2.64,0,0,0,1.91.72,2.94,2.94,0,0,0,1.13-.2,3.55,3.55,0,0,0,1-.73l-0.65-.65a2.72,2.72,0,0,1-.75.55,1.88,1.88,0,0,1-.76.15,1.83,1.83,0,0,1-.88-0.22A1.54,1.54,0,0,1,63.06,42a1.7,1.7,0,0,1-.22-0.86,1.57,1.57,0,0,1,.49-1.17,1.67,1.67,0,0,1,1.21-.48,2.09,2.09,0,0,1,1.53.7l0.67-.62a2.84,2.84,0,0,0-1-.72h0Zm5.72,0a2.92,2.92,0,0,0-1.19-.25,2.8,2.8,0,0,0-1.36.34,2.4,2.4,0,0,0-1.31,2.2,2.45,2.45,0,0,0,.74,1.84,2.64,2.64,0,0,0,1.91.72,2.94,2.94,0,0,0,1.13-.2,3.55,3.55,0,0,0,1-.73l-0.65-.65a2.72,2.72,0,0,1-.75.55,1.88,1.88,0,0,1-.76.15,1.83,1.83,0,0,1-.88-0.22A1.54,1.54,0,0,1,68.77,42a1.7,1.7,0,0,1-.22-0.86A1.57,1.57,0,0,1,69,39.92a1.67,1.67,0,0,1,1.21-.48,2.09,2.09,0,0,1,1.53.7l0.67-.62a2.84,2.84,0,0,0-1-.72h0Zm4.94-.13-1.89,3.14V38.67h-1v4.86h0.83l1.87-3v3h1V38.67h-0.8Zm3.28,0.22a2.54,2.54,0,0,0-1,.93,2.54,2.54,0,0,0,.4,3.08,2.67,2.67,0,0,0,3.7,0,2.42,2.42,0,0,0,.75-1.8,2.45,2.45,0,0,0-.76-1.82A2.52,2.52,0,0,0,81,38.55a2.63,2.63,0,0,0-1.31.34h0Zm2.47,1a1.68,1.68,0,0,1,0,2.35,1.58,1.58,0,0,1-1.16.48,1.67,1.67,0,0,1-1.06-.37,1.54,1.54,0,0,1-.6-1.28A1.61,1.61,0,0,1,81,39.45a1.59,1.59,0,0,1,1.17.48h0Zm2.61,3.6h1V41.4H87.4v2.13h1V38.67h-1V40.5H85.73V38.67h-1v4.86h0Zm4.62,0h1l0.41-1h2l0.39,1h1l-1.93-4.86h-1l-1.93,4.86h0Zm3.09-1.9H91.13L91.8,40l0.67,1.67h0Zm7,1.9-1.93-4.86h-1l-1.93,4.86h1L97.08,40l1.39,3.57h1Zm2.26,0a2.3,2.3,0,0,0,.9-0.14,1.43,1.43,0,0,0,.83-1.34,1.47,1.47,0,0,0-1-1.41,3.15,3.15,0,0,0-1-.13h-0.21V38.67h-1v4.86h1.4Zm-0.25-2.2q1,0,1,.69a0.55,0.55,0,0,1-.2.49,1.5,1.5,0,0,1-.79.14h-0.24V41.33h0.2Zm3.09,2.2h1V41.4h1.67v2.13h1V38.67h-1V40.5h-1.67V38.67h-1v4.86h0Zm8.84,0h0.95V38.67h-0.95v4.86h0Zm-2.42,0a2.29,2.29,0,0,0,.9-0.14,1.43,1.43,0,0,0,.82-1.34,1.47,1.47,0,0,0-1-1.41,3.14,3.14,0,0,0-1-.13h-0.21V38.67h-1v4.86H111Zm-0.25-2.2q1,0,1,.69a0.56,0.56,0,0,1-.2.49,1.5,1.5,0,0,1-.79.14h-0.24V41.33h0.2Zm7.88-2.66-1.89,3.14V38.67h-1v4.86h0.83l1.87-3v3h1V38.67h-0.8Zm-2.16-.82a1.11,1.11,0,0,0,.46.33,1.91,1.91,0,0,0,.71.11,1.63,1.63,0,0,0,1-.25,1,1,0,0,0,.41-0.67h-0.75a0.5,0.5,0,0,1-.21.19,1.07,1.07,0,0,1-.42.08,1,1,0,0,1-.39-0.07,0.54,0.54,0,0,1-.25-0.2h-0.75a1,1,0,0,0,.22.49h0Z" transform="translate(-5.87 -3.23)"/><polygon class="cls-1" points="61.09 21.48 57.52 21.48 57.52 17.11 55.05 17.11 55.05 28.96 57.52 28.96 57.52 23.88 61.09 23.88 61.09 28.96 63.56 28.96 63.56 17.11 61.09 17.11 61.09 21.48"/><path class="cls-1" d="M53.05,20a6,6,0,0,0-3.07.83,6.09,6.09,0,0,0-2.24,2.26,6.38,6.38,0,0,0,.93,7.5,6.08,6.08,0,0,0,8.68,0,6,6,0,0,0,1.77-4.39,6.11,6.11,0,0,0-1.79-4.43A5.82,5.82,0,0,0,53.05,20Zm3.63,6.24A3.77,3.77,0,0,1,55.62,29a3.43,3.43,0,0,1-2.55,1.1A3.66,3.66,0,0,1,49.4,26.3a3.81,3.81,0,0,1,1-2.75,3.6,3.6,0,0,1,5.17,0A3.79,3.79,0,0,1,56.68,26.29Z" transform="translate(-5.87 -3.23)"/><polygon class="cls-1" points="40.09 17.11 37.13 17.11 34.21 20.86 34.21 17.11 31.74 17.11 31.74 28.96 34.21 28.96 34.21 24.1 37.55 28.96 40.46 28.96 35.97 22.42 40.09 17.11"/><polygon class="cls-1" points="82.28 28.96 88.8 28.96 88.8 26.54 84.71 26.54 84.71 23.75 88.8 23.75 88.8 21.37 84.71 21.37 84.71 19.53 88.8 19.53 88.8 17.11 82.28 17.11 82.28 28.96"/><path class="cls-1" d="M102.09,22.45a4.61,4.61,0,0,1,3.41,1.62l0.09,0.1,1.71-1.65-0.08-.09a6.71,6.71,0,0,0-2.31-1.76,6.62,6.62,0,0,0-2.79-.62,6.38,6.38,0,0,0-3.18.84,6,6,0,0,0-2.27,2.22,6.22,6.22,0,0,0-.79,3.15,6,6,0,0,0,6.22,6.24,6.67,6.67,0,0,0,2.63-.5,8.3,8.3,0,0,0,2.44-1.77l0.09-.09-1.66-1.75-0.09.09a6.14,6.14,0,0,1-1.69,1.28,4,4,0,0,1-1.68.35,4,4,0,0,1-2-.5,3.48,3.48,0,0,1-1.36-1.36,4.06,4.06,0,0,1-.48-2,3.71,3.71,0,0,1,1.09-2.71A3.64,3.64,0,0,1,102.09,22.45Z" transform="translate(-5.87 -3.23)"/><path class="cls-1" d="M118,28.48a6.13,6.13,0,0,1-1.69,1.28,4,4,0,0,1-1.68.35,4,4,0,0,1-2-.5,3.48,3.48,0,0,1-1.36-1.36,4.07,4.07,0,0,1-.48-2,3.71,3.71,0,0,1,1.09-2.71,3.64,3.64,0,0,1,2.68-1.1A4.6,4.6,0,0,1,118,24.07l0.09,0.1,1.71-1.65-0.08-.09a6.7,6.7,0,0,0-2.31-1.76,6.62,6.62,0,0,0-2.79-.62,6.38,6.38,0,0,0-3.18.84,6,6,0,0,0-2.27,2.22,6.22,6.22,0,0,0-.79,3.15,6,6,0,0,0,6.22,6.24,6.67,6.67,0,0,0,2.63-.5,8.3,8.3,0,0,0,2.44-1.77l0.09-.09-1.66-1.75Z" transform="translate(-5.87 -3.23)"/><path class="cls-1" d="M84.39,20.7a7.59,7.59,0,0,0-2.76-.36H79.18V32.19h2.45V27.28a9.2,9.2,0,0,0,2.21-.19,3.39,3.39,0,0,0,1.77-1.16,3.32,3.32,0,0,0,.66-2.1,3.68,3.68,0,0,0-.5-1.95A2.91,2.91,0,0,0,84.39,20.7Zm-0.5,3.13a1,1,0,0,1-.16.59,0.88,0.88,0,0,1-.44.34,3.64,3.64,0,0,1-1.09.11H81.63V22.75h0.49a2.83,2.83,0,0,1,1.32.21A0.93,0.93,0,0,1,83.89,23.83Z" transform="translate(-5.87 -3.23)"/><polygon class="cls-1" points="65.92 28.96 68.35 28.96 68.35 19.53 71.87 19.53 71.87 17.11 65.92 17.11 65.92 28.96"/><polygon class="cls-1" points="47.03 13.02 49.67 13.02 49.67 2.99 51.92 2.99 51.92 0.41 44.84 0.41 44.84 2.99 47.03 2.99 47.03 13.02"/><path class="cls-1" d="M70.9,5.27a6.28,6.28,0,0,0-4.6-1.93,6.59,6.59,0,0,0-5.7,3.29,6.56,6.56,0,0,0-.87,3.32,6.53,6.53,0,0,0,1.87,4.65,6.57,6.57,0,0,0,9.32.05A6.39,6.39,0,0,0,72.82,10,6.46,6.46,0,0,0,70.9,5.27Zm-4.62.62a3.75,3.75,0,0,1,2.79,1.18h0A4,4,0,0,1,70.21,10a4,4,0,0,1-1.14,2.89A3.72,3.72,0,0,1,66.32,14a3.92,3.92,0,0,1-2.54-.9A3.84,3.84,0,0,1,62.36,10,4,4,0,0,1,63.49,7,3.77,3.77,0,0,1,66.28,5.89Z" transform="translate(-5.87 -3.23)"/><path class="cls-1" d="M43.39,16.56A7.22,7.22,0,0,0,46.21,16a8.91,8.91,0,0,0,2.62-1.88l0.09-.09-1.77-1.85-0.09.09a6.6,6.6,0,0,1-1.82,1.36,4.38,4.38,0,0,1-1.82.37,4.3,4.3,0,0,1-2.12-.53,3.73,3.73,0,0,1-1.47-1.45,4.3,4.3,0,0,1-.52-2.13,4,4,0,0,1,4.06-4.06A5,5,0,0,1,47.06,7.6L47.15,7.7,49,6,48.9,5.86A7.18,7.18,0,0,0,46.41,4h0a7.17,7.17,0,0,0-3-.66A6.91,6.91,0,0,0,40,4.22a6.37,6.37,0,0,0-2.44,2.35,6.56,6.56,0,0,0-.85,3.35,6.47,6.47,0,0,0,1.87,4.77A6.54,6.54,0,0,0,43.39,16.56Z" transform="translate(-5.87 -3.23)"/></svg>