<svg width="141" height="63" viewBox="0 0 141 63" fill="none" xmlns="http://www.w3.org/2000/svg">
<path d="M5.54028 56.3679V44.7479H12.12C12.8179 44.7479 13.4437 44.8974 13.9976 45.196C14.5514 45.4949 14.989 45.9044 15.3102 46.4245C15.6315 46.9446 15.7921 47.5366 15.7921 48.2006C15.7921 48.92 15.6204 49.5619 15.277 50.1264C14.9336 50.6906 14.4684 51.1389 13.8813 51.4708C13.2942 51.7918 12.6296 51.9524 11.8874 51.9524H6.8363V56.3679H5.54028ZM6.8363 50.6906H11.8043C12.3028 50.6906 12.7459 50.5855 13.1336 50.3753C13.5324 50.1538 13.8425 49.8552 14.064 49.479C14.2856 49.1025 14.3964 48.6711 14.3964 48.1839C14.3964 47.7636 14.2856 47.3927 14.064 47.0719C13.8425 46.7397 13.5379 46.4797 13.1502 46.2917C12.7625 46.1034 12.3139 46.0094 11.8043 46.0094H6.8363V50.6906Z" fill="#152536"/>
<path d="M35.4717 56.3679V44.7479H36.7677V55.1061H44.6768V56.3679H35.4717Z" fill="#152536"/>
<path d="M62.3486 56.3679L68.0146 44.7479H69.643L75.2591 56.3679H73.8135L69.6761 47.8354C69.5321 47.5035 69.4102 47.2379 69.3106 47.0386C69.2221 46.8395 69.1388 46.6679 69.0614 46.524C68.984 46.3801 68.9063 46.2196 68.8288 46.0427C68.7622 45.8655 68.6848 45.6387 68.5963 45.362L68.9784 45.3454C68.8566 45.6665 68.7511 45.9265 68.6626 46.1256C68.5852 46.3139 68.5075 46.4908 68.43 46.6568C68.3524 46.8118 68.2638 46.9834 68.1642 47.1714C68.0757 47.3597 67.9591 47.6086 67.8153 47.9183L63.7112 56.3679H62.3486ZM64.6914 53.33L65.2231 52.0685H72.3347L72.5672 53.33H64.6914Z" fill="#152536"/>
<path d="M99.8552 56.5339C98.8694 56.5339 97.9556 56.39 97.1136 56.1022C96.2719 55.8033 95.5351 55.3883 94.9038 54.8571C94.2835 54.3258 93.7962 53.6951 93.4416 52.9648C93.0983 52.2234 92.9265 51.4155 92.9265 50.5411C92.9265 49.689 93.0983 48.9089 93.4416 48.2005C93.7962 47.4813 94.2835 46.8561 94.9038 46.3248C95.524 45.7936 96.2497 45.3841 97.0803 45.0963C97.9112 44.8086 98.8029 44.6647 99.7555 44.6647C100.465 44.6647 101.151 44.7589 101.816 44.9469C102.48 45.1241 103.09 45.362 103.644 45.6608C104.209 45.9486 104.663 46.2639 105.006 46.6068L104.242 47.7524C103.898 47.3981 103.489 47.0884 103.012 46.8228C102.536 46.5461 102.01 46.3304 101.434 46.1754C100.869 46.0093 100.271 45.9264 99.6393 45.9264C98.9191 45.9264 98.2325 46.0371 97.579 46.2583C96.9366 46.4796 96.366 46.7951 95.8676 47.2046C95.3692 47.6141 94.9759 48.1009 94.6879 48.6654C94.4109 49.2297 94.2724 49.8551 94.2724 50.5411C94.2724 51.2716 94.4165 51.9301 94.7045 52.5165C95.0034 53.0921 95.4133 53.5845 95.9339 53.994C96.4545 54.4035 97.0528 54.7187 97.7286 54.9402C98.4041 55.1615 99.1298 55.2721 99.9051 55.2721C100.559 55.2721 101.157 55.1892 101.7 55.0231C102.253 54.8571 102.746 54.6414 103.178 54.3757C103.622 54.099 103.998 53.8224 104.308 53.5457L104.923 54.658C104.613 54.9458 104.192 55.2388 103.66 55.5377C103.128 55.8255 102.542 56.0634 101.899 56.2516C101.257 56.4396 100.575 56.5339 99.8552 56.5339Z" fill="#152536"/>
<path d="M124.422 56.3679V44.7479H133.793V46.0094H125.718V55.1061H133.76V56.3679H124.422ZM125.12 51.0227V49.761H132.863V51.0227H125.12Z" fill="#152536"/>
<path fill-rule="evenodd" clip-rule="evenodd" d="M122.549 33.5959C120.711 33.5959 119.038 33.3084 117.531 32.7328C116.025 32.1353 114.707 31.3052 113.577 30.2428C112.447 29.1804 111.583 27.93 110.985 26.4913C110.387 25.0304 110.088 23.4479 110.088 21.7436C110.088 20.0394 110.387 18.4679 110.985 17.0292C111.583 15.5684 112.447 14.3068 113.577 13.2444C114.707 12.1599 116.025 11.3299 117.531 10.7544C119.038 10.1568 120.711 9.85803 122.549 9.85803C124.366 9.85803 126.039 10.1568 127.567 10.7544C129.096 11.3299 130.414 12.1599 131.522 13.2444C132.63 14.3068 133.493 15.5684 134.114 17.0292C134.734 18.4679 135.044 20.0394 135.044 21.7436C135.044 23.4479 134.734 25.0304 134.114 26.4913C133.493 27.93 132.63 29.1804 131.522 30.2428C130.414 31.3052 129.096 32.1353 127.567 32.7328C126.039 33.3084 124.366 33.5959 122.549 33.5959ZM122.549 31.936C124.1 31.936 125.529 31.6926 126.836 31.2057C128.165 30.6967 129.306 29.9883 130.259 29.0808C131.234 28.1512 131.976 27.0666 132.485 25.8273C133.017 24.5878 133.283 23.2266 133.283 21.7436C133.283 20.2607 133.017 18.8995 132.485 17.66C131.976 16.3984 131.234 15.3139 130.259 14.4064C129.306 13.499 128.165 12.7907 126.836 12.2816C125.529 11.7726 124.1 11.518 122.549 11.518C120.999 11.518 119.559 11.7726 118.229 12.2816C116.922 12.7907 115.792 13.51 114.84 14.4396C113.887 15.3471 113.145 16.4316 112.613 17.6932C112.104 18.9327 111.849 20.2828 111.849 21.7436C111.849 23.2266 112.104 24.5878 112.613 25.8273C113.145 27.0447 113.887 28.118 114.84 29.0476C115.792 29.9772 116.922 30.6967 118.229 31.2057C119.559 31.6926 120.999 31.936 122.549 31.936ZM78.2469 33.264V10.024H88.0834C89.479 10.024 90.7197 10.3339 91.8051 10.9536C92.8907 11.5512 93.7435 12.3702 94.364 13.4104C94.9843 14.4507 95.2945 15.6238 95.2945 16.9296C95.2945 18.3019 94.9843 19.4971 94.364 20.5152C93.7435 21.5334 92.8796 22.3302 91.7718 22.9056C91.2227 23.1968 90.6367 23.4143 90.0137 23.5581L96.391 33.264H94.3971L88.1451 23.7686L88.1114 23.7688L88.0834 23.7688H79.9084V33.264H78.2469ZM79.9084 22.1088H88.0834C89.1687 22.1088 90.1214 21.8986 90.9412 21.478C91.761 21.0354 92.3923 20.4267 92.8352 19.652C93.2784 18.8774 93.4999 17.992 93.4999 16.996C93.4999 16 93.2562 15.1036 92.7689 14.3068C92.2816 13.4879 91.6058 12.846 90.7417 12.3812C89.9 11.9164 88.9251 11.684 87.8175 11.684H79.9084V22.1088ZM4.93848 33.264V10.0241H6.56679L16.429 24.5475L26.5054 10.0241H27.9677V33.264H26.3062V21.5776C26.3062 19.6078 26.317 17.826 26.3392 16.2324C26.3702 15.1222 26.4225 14.0119 26.4964 12.9016L17.0678 26.3585H15.6721L6.40705 12.8372C6.47598 13.8976 6.51816 14.974 6.53357 16.0665C6.57786 17.6379 6.60003 19.475 6.60003 21.5776V33.264H4.93848ZM43.8795 17.274V11.4502H64.3346L65.0388 9.96954H42.2959V9.96957V18.2696L43.8795 17.274ZM42.2959 31.5777V33.2H43.8795H65.0433L64.3472 31.5777H43.8795V25.7411L42.2959 24.8058V31.5777Z" fill="#152536"/>
<path d="M57.3273 21.5721L50.2876 25.6327V17.5116L57.3273 21.5721Z" fill="#152536"/>
</svg>
