<svg width="220" height="110" viewBox="0 0 220 110" fill="none" xmlns="http://www.w3.org/2000/svg">
<rect width="220" height="110" fill="#CED4DA"/>
<path fill-rule="evenodd" clip-rule="evenodd" d="M127.653 36.25H90.2414C89.4145 36.25 88.6216 36.5792 88.0369 37.1653C87.4522 37.7513 87.1238 38.5462 87.1238 39.375V67.5L95.373 60.1437C95.6279 59.8893 95.9626 59.7309 96.3206 59.6956C96.6786 59.6603 97.0377 59.7502 97.3372 59.95L105.63 65.4906L117.197 53.8969C117.428 53.6649 117.726 53.5117 118.049 53.459C118.372 53.4063 118.703 53.4567 118.995 53.6031L130.771 59.6875V39.375C130.771 38.5462 130.442 37.7513 129.858 37.1653C129.273 36.5792 128.48 36.25 127.653 36.25V36.25ZM90.2414 33.125C88.5877 33.125 87.0017 33.7835 85.8324 34.9556C84.663 36.1277 84.0061 37.7174 84.0061 39.375V70.625C84.0061 72.2826 84.663 73.8723 85.8324 75.0444C87.0017 76.2165 88.5877 76.875 90.2414 76.875H127.653C128.472 76.875 129.283 76.7133 130.039 76.3992C130.796 76.0852 131.483 75.6248 132.062 75.0444C132.641 74.4641 133.1 73.7751 133.414 73.0168C133.727 72.2585 133.888 71.4458 133.888 70.625V39.375C133.888 37.7174 133.232 36.1277 132.062 34.9556C130.893 33.7835 129.307 33.125 127.653 33.125H90.2414V33.125ZM102.712 47.1875C102.712 47.8031 102.591 48.4126 102.356 48.9813C102.121 49.55 101.777 50.0668 101.342 50.5021C100.908 50.9373 100.392 51.2826 99.8251 51.5182C99.2577 51.7538 98.6496 51.875 98.0355 51.875C97.4214 51.875 96.8133 51.7538 96.2459 51.5182C95.6785 51.2826 95.163 50.9373 94.7288 50.5021C94.2945 50.0668 93.95 49.55 93.715 48.9813C93.48 48.4126 93.359 47.8031 93.359 47.1875C93.359 45.9443 93.8517 44.752 94.7288 43.8729C95.6058 42.9939 96.7952 42.5 98.0355 42.5C99.2758 42.5 100.465 42.9939 101.342 43.8729C102.219 44.752 102.712 45.9443 102.712 47.1875V47.1875Z" fill="white"/>
</svg>
